<svg xmlns="http://www.w3.org/2000/svg" xmlns:xlink="http://www.w3.org/1999/xlink" viewBox="0 0 2109.53 745.87"><defs><style>.cls-1{fill:none;}.cls-2{clip-path:url(#clip-path);}.cls-3{fill:#b65a05;}.cls-4{fill:#dc8739;}.cls-5{fill:#c36b0e;}.cls-6{fill:#c67a2a;}.cls-7{fill:#b96920;}.cls-8{fill:#cf884d;}.cls-9{fill:#e99a46;}.cls-10{fill:#f2ab6f;}</style><clipPath id="clip-path" transform="translate(0 -83.13)"><rect class="cls-1" x="516.72" width="1081" height="829"/></clipPath></defs><title>desert-part</title><g id="Layer_2" data-name="Layer 2"><g id="Layer_1-2" data-name="Layer 1"><g class="cls-2"><path class="cls-3" d="M1405.87,152.2V436.52h703.65V136.11C1997.17,185,1643.66,156.1,1405.87,152.2Z" transform="translate(0 -83.13)"/><path class="cls-4" d="M1091.61,165.2c-121.92-14.06-375.71,33.62-734,0C235.37,153.72,76.62,189,0,135.2V271.82H1597.21V166.54C1473.07,177.34,1321.8,191.74,1091.61,165.2Z" transform="translate(0 -83.13)"/><path class="cls-5" d="M0,299.65H1416l-58.36-38L1217.9,231.09,1160.74,193l-120.68-13.35-162-34.33s-88.93,17.16-104.8,21S595.43,191,595.43,191L465.21,229.19,287.36,198.68s-66.69,0-82.57-1.91-108.4-22.72-108.4-22.72L0,199.1H0Z" transform="translate(0 -83.13)"/><polygon class="cls-3" points="1217.9 147.97 1160.73 109.83 1050.93 125.82 972.85 198.42 883.15 216.53 1018.51 208.97 1217.9 147.97"/><polygon class="cls-3" points="1040.05 96.48 878.08 62.15 799.65 147.22 806.06 179.91 516.53 216.53 1416 216.53 905.58 195.67 1040.05 96.48"/><polygon class="cls-3" points="1357.64 178.48 1416 216.53 631.37 216.53 1278.04 203.91 1357.64 178.48"/><polygon class="cls-3" points="287.36 115.55 465.21 146.06 323.07 216.53 89.78 216.53 188.95 205.72 244.45 172.86 287.36 115.55"/><polygon class="cls-3" points="96.39 90.93 58.39 165.45 0 216.53 98.36 186.9 204.79 113.64 96.39 90.93"/><path class="cls-5" d="M2109.53,180.56l-8.67-1-162-34.33s-88.93,17.16-104.8,21S1656.24,191,1656.24,191l-128.92,37.76v70.84h582.22Z" transform="translate(0 -83.13)"/><polygon class="cls-3" points="2109.53 127.87 2033.66 198.42 1943.96 216.53 2079.32 208.97 2109.53 199.73 2109.53 127.87"/><polygon class="cls-3" points="2109.53 216.53 2109.53 201.52 1966.39 195.67 2100.86 96.48 1938.89 62.15 1860.46 147.22 1866.87 179.91 1577.34 216.53 2109.53 216.53"/><polygon class="cls-3" points="2109.53 208.39 1692.18 216.53 2109.53 216.53 2109.53 208.39"/><polygon class="cls-6" points="0 367.97 487.21 367.97 434.11 292.06 306.97 231.19 254.96 155.1 145.16 128.47 0 61.01 0 367.97"/><polygon class="cls-5" points="307.19 238.07 243.64 156.84 144.94 137.51 13.23 76.5 59.64 135.74 70.83 211.41 0.91 232.63 0 326.61 307.19 238.07"/><polygon class="cls-7" points="0 367.97 487.21 367.97 0 343.75 0 367.97"/><polygon class="cls-7" points="0 358.27 0 367.97 479.26 367.97 432.51 298.39 352.1 313.16 345.55 329.17 421.29 340.25 0 358.27"/><polygon class="cls-8" points="306.28 238.07 420.35 293.46 351.16 305.78 370.8 288.54 324.98 298.39 285.04 346.07 156.99 351.55 259 334.21 289.88 293.49 267.01 297.16 129.81 350.2 242.07 278.87 271.69 260.23 306.28 238.07"/><polygon class="cls-8" points="144.03 137.51 92.37 172.14 76.4 220.38 35.06 253.77 0 292.49 0 311.15 52.91 257.48 91.43 222.85 124.57 178.98 249.25 161.01 144.03 137.51"/><path class="cls-6" d="M2109.53,145.75c-19.19,8.15-77.12,32.88-89.13,39.21-14.45,7.61-161.81,49.46-161.81,49.46l-118.47,76.09L1578.3,249.64s-60.68,0-75.13-3.8-98.63-45.32-98.63-45.32l-87.68,50-184.33,200.6h977Z" transform="translate(0 -83.13)"/><polygon class="cls-8" points="1147.03 361.18 1317.2 176.51 1406.02 127.27 1338.7 196.21 1347.12 229.45 1278.86 330.4 1185.36 356.25 1270.45 318.09 1314.27 231.09 1286.05 238.66 1227.44 309.47 1206.87 314.39 1147.03 361.18"/><polygon class="cls-7" points="2109.53 343.33 2049.68 340.36 2101.34 327.99 2109.53 319.16 2109.53 179.78 2050.22 294.91 1919.34 336.25 1929.15 311.32 1891.29 341.79 1786.8 367.97 2109.53 367.97 2109.53 343.33"/><polygon class="cls-7" points="2109.53 358.63 1891.29 367.97 2109.53 367.97 2109.53 358.63"/><polygon class="cls-7" points="1597.99 182.92 1719.45 246.01 1610.79 367.97 1398.54 367.97 1488.77 346.4 1546.27 329.78 1590.45 230.99 1539.26 280.85 1597.99 182.92"/><polygon class="cls-8" points="2109.53 67.81 2024.88 107.05 1865.22 155.3 1719.45 246.01 1618.27 361.18 1722.05 254.07 1804.33 214.68 1762.26 295.93 1673.43 352.56 1768.8 309.47 1843.6 197.44 1847.11 216.16 1823.03 335.32 1941.64 170.92 1954.57 188.69 1896.4 243.63 1960.23 229.9 2008.7 187.89 1989.31 150.72 2044.25 125.67 2022.44 162.84 2083.9 108.8 2109.53 74.92 2109.53 67.81"/><polygon class="cls-7" points="1413.04 129.43 1508.55 171.62 1406.64 263.95 1376.1 311.93 1314.49 360.94 1300.37 367.97 1202.66 367.97 1289.15 343.32 1397.61 220.83 1414.9 153.74 1371.43 191.29 1413.04 129.43"/><polygon class="cls-8" points="1583.35 175.31 1508.55 171.62 1443.09 230.93 1473.81 214.68 1451.37 242.99 1406.64 263.95 1372.98 309.5 1314.07 359.97 1381.39 315.65 1414.12 275.03 1457.91 263.92 1494.85 231.3 1521.88 224.29 1511.68 255.3 1460.87 302.11 1440.3 339.05 1396.35 361.2 1443.99 348.87 1465.86 311.93 1519.16 276.23 1583.35 175.31"/><path class="cls-9" d="M2109.53,418.2l-76.06-82.58-182.12-66.23-74.5-82.78-157.29-29-211.1-74.51s-115.9,37.25-136.59,45.53-231.79,53.81-231.79,53.81L870.35,265.25,638.56,199s-86.92,0-107.62-4.14-141.28-49.3-141.28-49.3L264.05,199.95,0,418.2Z" transform="translate(0 -83.13)"/><polygon class="cls-10" points="20.76 327.68 264.53 126.78 391.77 73.2 295.33 148.21 307.39 184.37 209.61 294.2 75.67 322.32 197.56 280.8 260.33 186.15 219.91 194.39 135.95 271.43 106.48 276.79 20.76 327.68"/><polygon class="cls-4" points="1850.36 193.74 1774.01 117.4 1633.72 138.19 1590.4 204.24 1644.55 156.59 1569.83 269.21 1415.06 335.07 1591.48 318.68 1850.36 193.74"/><polygon class="cls-4" points="1617.93 84.34 1423.1 14.91 1306.23 184.64 1410.58 77.52 1415.2 107.25 1314.58 255.59 1127.09 300.56 1141.15 273.44 1086.91 306.59 937.23 335.07 2109.53 335.07 1313.8 305.03 1387.82 291.57 1530.22 174.9 1617.93 84.34"/><polygon class="cls-5" points="1617.93 84.34 1537.19 55.56 1552.84 82.55 1515.66 91.4 1348.7 275.04 1031.53 364.72 1175.01 340.81 1387.82 291.57 1530.22 174.9 1617.93 84.34"/><polygon class="cls-4" points="2031.17 259.37 2098.14 335.07 1477.1 377.54 2015.1 304.91 1906.61 292.86 1915.99 275.45 2031.17 259.37"/><polygon class="cls-10" points="1850.36 193.74 2013.76 254.02 1914.65 267.41 1942.77 248.66 1877.14 259.37 1819.93 311.25 1636.5 317.21 1782.62 298.35 1826.86 254.04 1794.1 258.03 1597.55 315.75 1758.37 238.14 1800.8 217.85 1850.36 193.74"/><polygon class="cls-10" points="1768.65 109.91 1617.93 84.34 1543.92 122.02 1521.04 174.5 1461.83 210.83 1378.4 280.81 1313.8 305.03 1387.82 291.57 1487.4 214.87 1542.57 177.19 1584.29 130.09 1590.05 129.46 1570.43 197.76 1523.55 213.84 1444.52 283.48 1526.23 224.55 1575.78 207.14 1617.3 126.78 1768.65 109.91"/><polygon class="cls-4" points="666.76 133.74 840.75 202.39 685.09 335.07 381.05 335.07 510.31 311.61 592.68 293.53 655.96 186.04 582.63 240.29 666.76 133.74"/><polygon class="cls-5" points="752.66 187.15 840.75 202.39 731.99 296.41 631.39 320.55 638.37 303.34 744.61 248.47 672.32 262.94 752.66 187.15"/><polygon class="cls-10" points="1411.4 4.34 1278.29 51.2 1049.57 103.7 840.75 202.39 695.81 327.68 844.48 211.15 962.35 168.3 902.07 256.69 774.83 318.31 911.45 271.43 1018.6 149.54 1090.93 117.4 1155.1 113.92 1135.13 203.12 989.13 299.56 1142.77 222.41 1234.24 116.06 1245.39 187.63 1086.91 306.59 1255.6 207.96 1277.1 174.99 1287.82 89.27 1303.6 82.69 1323.98 120.08 1362.82 53.11 1411.4 4.34"/><polygon class="cls-4" points="401.81 75.54 538.64 121.45 392.65 221.9 348.91 274.11 260.65 327.43 240.42 335.07 100.45 335.07 224.35 308.26 379.71 174.99 404.49 102 342.21 142.85 401.81 75.54"/><polygon class="cls-5" points="444.08 89.72 538.64 121.45 392.65 221.9 348.91 274.11 260.65 327.43 224.35 308.26 288.98 293.49 378.79 222.55 400.99 185.64 444.08 89.72"/><polygon class="cls-10" points="645.79 125.47 538.64 121.45 444.86 185.98 488.87 168.3 456.73 199.1 392.65 221.9 344.43 271.46 260.05 326.38 356.49 278.16 403.37 233.96 466.11 221.87 519.01 186.38 557.73 178.76 543.12 212.5 470.34 263.42 440.87 303.61 377.92 327.71 446.16 314.29 477.49 274.11 553.83 235.26 645.79 125.47"/><path class="cls-5" d="M873.57,385.48C693.55,360.17,145.23,427,0,363.81v300.4H2108.62l.91-293.11C1942.85,322.23,1580.75,484.93,873.57,385.48Z" transform="translate(0 -83.13)"/><path class="cls-4" d="M873.95,455.31c562.54,79,932.21,36.16,1235.58,4V772.75H0v-319C355.61,383,576,413.46,873.95,455.31Z" transform="translate(0 -83.13)"/><path class="cls-5" d="M1080.21,499.51c574.73,60.9,886.67,112.51,1029.32,72.33V772.75H0V571.84C343.55,480.76,715.63,460.88,1080.21,499.51Z" transform="translate(0 -83.13)"/><path class="cls-9" d="M898.06,495.49C717,478.21,115.91,522.44,0,559.79V829H2109.53V571.84C1962.86,604,1640.61,566.38,898.06,495.49Z" transform="translate(0 -83.13)"/><path class="cls-10" d="M1007.89,786.14s266.27-94.63,687.1-116.53c142.26-7.4,317.43,9.38,317.43,9.38C1744.55,590.59,1273.08,668.27,1007.89,786.14Z" transform="translate(0 -83.13)"/><path class="cls-4" d="M1007.89,786.14c85.72-42.86,596-242.43,1004.54-107.15C1591.86,579.87,1007.89,786.14,1007.89,786.14Z" transform="translate(0 -83.13)"/><path class="cls-4" d="M231.44,699c426.21,109.84,1247.38,40.66,647.12-108.85C1202.12,717.35,530.45,764.45,231.44,699Z" transform="translate(0 -83.13)"/><path class="cls-10" d="M123.89,654.88c64.29-32.15,375.85-142,668.76-81.73C464.1,550.41,123.89,654.88,123.89,654.88Z" transform="translate(0 -83.13)"/><path class="cls-4" d="M1684.73,450c39.71-19.85,232.14-87.72,413.05-50.48C1894.85,385.43,1684.73,450,1684.73,450Z" transform="translate(0 -83.13)"/><path class="cls-3" d="M1847,432.8c-52.82,21.83-306.17,91.2-535,26.68C1571.27,496.25,1847,432.8,1847,432.8Z" transform="translate(0 -83.13)"/><polygon class="cls-5" points="1775.35 128.42 1687.36 180 1632.04 269.05 1553.31 314.04 1657.49 273.07 1728.47 188.69 1711.06 244.94 1831.61 188.69 1775.35 128.42"/><path class="cls-9" d="M229.45,439.75c118.71-27.37,298.71-27.21,421.47,14.18C471.85,422.36,229.45,439.75,229.45,439.75Z" transform="translate(0 -83.13)"/><path class="cls-4" d="M657.45,393.08c101.41-13.83,253-2.35,354.21,37.63C862.5,394.82,657.45,393.08,657.45,393.08Z" transform="translate(0 -83.13)"/><path class="cls-4" d="M1425.39,573.47c-14.68,0-26.58,2.14-26.58,4.77s11.9,4.77,26.58,4.77,26.58-2.14,26.58-4.77S1440.07,573.47,1425.39,573.47Zm-6.42,4.24c-5.48,0-9.92-.81-9.92-1.8s4.44-1.8,9.92-1.8,9.92.81,9.92,1.8S1424.45,577.71,1419,577.71Z" transform="translate(0 -83.13)"/><path class="cls-10" d="M1351.83,732.77c-10.32,0-18.68,1.5-18.68,3.35s8.37,3.35,18.68,3.35,18.68-1.5,18.68-3.35S1362.15,732.77,1351.83,732.77Zm-4.51,3c-3.85,0-7-.57-7-1.27s3.12-1.27,7-1.27,7,.57,7,1.27S1351.17,735.75,1347.32,735.75Z" transform="translate(0 -83.13)"/><path class="cls-10" d="M723.32,583.65c-16.13,0-29.2,2.35-29.2,5.24s13.07,5.24,29.2,5.24,29.2-2.35,29.2-5.24S739.45,583.65,723.32,583.65Zm-7.05,4.66c-6,0-10.9-.89-10.9-2s4.88-2,10.9-2,10.9.89,10.9,2S722.29,588.31,716.27,588.31Z" transform="translate(0 -83.13)"/><path class="cls-4" d="M251.83,731.19c-16.13,0-29.2,2.35-29.2,5.24s13.07,5.24,29.2,5.24,29.2-2.35,29.2-5.24S268,731.19,251.83,731.19Zm-7.05,4.66c-6,0-10.9-.89-10.9-2s4.88-2,10.9-2,10.9.89,10.9,2S250.8,735.84,244.78,735.84Z" transform="translate(0 -83.13)"/><ellipse class="cls-4" cx="286.61" cy="663.99" rx="10.9" ry="1.98"/><ellipse class="cls-10" cx="682.28" cy="513.89" rx="10.9" ry="1.98"/><ellipse class="cls-10" cx="709.84" cy="523.64" rx="10.9" ry="1.98"/><ellipse class="cls-4" cx="1451.08" cy="502.92" rx="10.9" ry="1.98"/><ellipse class="cls-10" cx="1839.4" cy="613.41" rx="10.9" ry="1.98"/><ellipse class="cls-10" cx="1861.83" cy="618.25" rx="15.9" ry="2.89"/><ellipse class="cls-10" cx="942.68" cy="728.32" rx="10.9" ry="1.98"/><ellipse class="cls-4" cx="967.06" cy="708.69" rx="18.62" ry="3.39"/><ellipse class="cls-4" cx="161.11" cy="617.12" rx="10.9" ry="1.98"/></g></g></g></svg>