<svg xmlns="http://www.w3.org/2000/svg" xmlns:xlink="http://www.w3.org/1999/xlink" viewBox="0 0 3043.64 1006.4"><defs><style>.cls-1{fill:none;}.cls-2,.cls-62{isolation:isolate;}.cls-3{opacity:0.9;}.cls-4{clip-path:url(#clip-path);}.cls-5{fill:url(#linear-gradient);}.cls-6{fill:url(#linear-gradient-2);}.cls-7{fill:url(#linear-gradient-3);}.cls-8{fill:url(#linear-gradient-4);}.cls-9{fill:url(#linear-gradient-5);}.cls-10{fill:url(#linear-gradient-6);}.cls-11{fill:url(#linear-gradient-7);}.cls-12{fill:url(#linear-gradient-8);}.cls-13{fill:url(#linear-gradient-9);}.cls-14{fill:#3c7726;}.cls-14,.cls-15,.cls-24,.cls-25,.cls-46,.cls-47,.cls-52,.cls-60{opacity:0.1;}.cls-15{fill:#fcff78;}.cls-16{fill:url(#linear-gradient-10);}.cls-17{fill:url(#linear-gradient-11);}.cls-18{fill:url(#linear-gradient-12);}.cls-19{fill:url(#linear-gradient-13);}.cls-20{fill:url(#linear-gradient-14);}.cls-21{fill:url(#linear-gradient-15);}.cls-22{fill:#d3d348;opacity:0.2;}.cls-23{fill:url(#linear-gradient-16);}.cls-24{fill:#5fb537;}.cls-25{fill:#6dce45;}.cls-26{fill:url(#linear-gradient-17);}.cls-27{fill:url(#linear-gradient-18);}.cls-28{fill:url(#linear-gradient-19);}.cls-29{fill:url(#linear-gradient-20);}.cls-30{fill:url(#linear-gradient-21);}.cls-31{fill:url(#linear-gradient-22);}.cls-32{fill:url(#linear-gradient-23);}.cls-33{fill:url(#linear-gradient-24);}.cls-34{fill:url(#linear-gradient-25);}.cls-35{fill:url(#linear-gradient-26);}.cls-36{fill:url(#linear-gradient-27);}.cls-37{fill:url(#linear-gradient-28);}.cls-38{fill:url(#linear-gradient-29);}.cls-39{fill:url(#linear-gradient-30);}.cls-40{fill:url(#linear-gradient-31);}.cls-41{fill:url(#linear-gradient-32);}.cls-42{fill:url(#linear-gradient-33);}.cls-43{fill:url(#linear-gradient-34);}.cls-44{fill:url(#linear-gradient-35);}.cls-45{fill:url(#linear-gradient-36);}.cls-46{fill:#4f9a37;}.cls-47{fill:#2d5e1b;}.cls-48{fill:url(#linear-gradient-37);}.cls-49{fill:url(#linear-gradient-38);}.cls-50{fill:#e8b937;}.cls-50,.cls-58{opacity:0.15;}.cls-51{fill:url(#linear-gradient-39);}.cls-52{fill:#dae837;}.cls-53{fill:url(#linear-gradient-40);}.cls-54{fill:url(#linear-gradient-41);}.cls-55{fill:url(#linear-gradient-42);}.cls-56{fill:url(#linear-gradient-43);}.cls-57{fill:url(#linear-gradient-44);}.cls-58{fill:#e8e246;}.cls-59{fill:url(#linear-gradient-45);}.cls-60{fill:#274f16;}.cls-61{fill:#700f0c;}.cls-62{opacity:0.5;mix-blend-mode:overlay;}.cls-63{fill:#fffdfd;}.cls-64{fill:#e2e0e0;}.cls-65{fill:#c6c6c6;}.cls-66{fill:#a4a4a4;}.cls-67{fill:#d11e1e;}.cls-68{fill:#d81d1d;}</style><clipPath id="clip-path"><rect class="cls-1" x="987.13" y="183" width="1103.76" height="608.6"/></clipPath><linearGradient id="linear-gradient" x1="7235.86" y1="323.95" x2="7372.73" y2="323.95" gradientTransform="matrix(-1, 0, 0, 1, 9678, 0)" gradientUnits="userSpaceOnUse"><stop offset="0" stop-color="#5b8975"/><stop offset="1" stop-color="#507243"/></linearGradient><linearGradient id="linear-gradient-2" x1="7345.56" y1="309.57" x2="7546.53" y2="309.57" gradientTransform="matrix(-1, 0, 0, 1, 9678, 0)" gradientUnits="userSpaceOnUse"><stop offset="0" stop-color="#5b684f"/><stop offset="1" stop-color="#507243"/></linearGradient><linearGradient id="linear-gradient-3" x1="7594.32" y1="288.37" x2="7649.76" y2="288.37" xlink:href="#linear-gradient-2"/><linearGradient id="linear-gradient-4" x1="7661.52" y1="290.19" x2="7869.88" y2="290.19" xlink:href="#linear-gradient"/><linearGradient id="linear-gradient-5" x1="7834.71" y1="290.77" x2="7918.76" y2="290.77" xlink:href="#linear-gradient-2"/><linearGradient id="linear-gradient-6" x1="7957.95" y1="311.25" x2="8065.28" y2="311.25" xlink:href="#linear-gradient-2"/><linearGradient id="linear-gradient-7" x1="8020.44" y1="321.65" x2="8179.06" y2="321.65" xlink:href="#linear-gradient"/><linearGradient id="linear-gradient-8" x1="8126.58" y1="361.76" x2="8345.93" y2="361.76" xlink:href="#linear-gradient-2"/><linearGradient id="linear-gradient-9" x1="7738.74" y1="561.47" x2="7738.74" y2="286.32" gradientTransform="matrix(-1, 0, 0, 1, 9678, 0)" gradientUnits="userSpaceOnUse"><stop offset="0" stop-color="#6da100"/><stop offset="1" stop-color="#93c437"/></linearGradient><linearGradient id="linear-gradient-10" x1="7872.31" y1="430.09" x2="7872.31" y2="289.68" gradientTransform="matrix(-1, 0, 0, 1, 9678, 0)" gradientUnits="userSpaceOnUse"><stop offset="0" stop-color="#bda95c"/><stop offset="1" stop-color="#f5e9ab"/></linearGradient><linearGradient id="linear-gradient-11" x1="7123.37" y1="310.38" x2="7123.37" y2="370.75" gradientTransform="matrix(-1, 0, 0, 1, 9678, 0)" gradientUnits="userSpaceOnUse"><stop offset="0" stop-color="#5b905e"/><stop offset="1" stop-color="#4f7220"/></linearGradient><linearGradient id="linear-gradient-12" x1="7342.45" y1="342.72" x2="7342.45" y2="382.52" xlink:href="#linear-gradient-11"/><linearGradient id="linear-gradient-13" x1="7257.95" y1="316.78" x2="7257.95" y2="372.43" gradientTransform="matrix(-1, 0, 0, 1, 9678, 0)" gradientUnits="userSpaceOnUse"><stop offset="0" stop-color="#668717"/><stop offset="1" stop-color="#454a3f"/></linearGradient><linearGradient id="linear-gradient-14" x1="6944.52" y1="317.96" x2="6944.52" y2="350.08" xlink:href="#linear-gradient-13"/><linearGradient id="linear-gradient-15" x1="7146.93" y1="483.2" x2="7198.48" y2="321.17" gradientTransform="matrix(-1, 0, 0, 1, 9678, 0)" gradientUnits="userSpaceOnUse"><stop offset="0" stop-color="#74ab00"/><stop offset="1" stop-color="#9bcf3a"/></linearGradient><linearGradient id="linear-gradient-16" x1="7567.93" y1="612.68" x2="7567.93" y2="383.56" gradientTransform="matrix(-1, 0, 0, 1, 9678, 0)" gradientUnits="userSpaceOnUse"><stop offset="0" stop-color="#7eba00"/><stop offset="1" stop-color="#dae837"/></linearGradient><linearGradient id="linear-gradient-17" x1="7527.76" y1="673.81" x2="7527.76" y2="440.78" xlink:href="#linear-gradient-10"/><linearGradient id="linear-gradient-18" x1="8972.96" y1="253.32" x2="8972.96" y2="320.28" gradientTransform="matrix(-1, 0, 0, 1, 9678, 0)" gradientUnits="userSpaceOnUse"><stop offset="0" stop-color="#5b745e"/><stop offset="1" stop-color="#4f7220"/></linearGradient><linearGradient id="linear-gradient-19" x1="9082.79" y1="258.76" x2="9082.79" y2="313.47" gradientTransform="matrix(-1, 0, 0, 1, 9678, 0)" gradientUnits="userSpaceOnUse"><stop offset="0" stop-color="#597317"/><stop offset="1" stop-color="#454a3f"/></linearGradient><linearGradient id="linear-gradient-20" x1="9246.79" y1="260.46" x2="9246.79" y2="323.14" xlink:href="#linear-gradient-18"/><linearGradient id="linear-gradient-21" x1="9273.24" y1="276.31" x2="9273.24" y2="328.11" xlink:href="#linear-gradient-19"/><linearGradient id="linear-gradient-22" x1="8767.49" y1="284.6" x2="8767.49" y2="327.7" xlink:href="#linear-gradient-19"/><linearGradient id="linear-gradient-23" x1="8409.2" y1="318.15" x2="8409.2" y2="363.83" xlink:href="#linear-gradient-13"/><linearGradient id="linear-gradient-24" x1="8510.56" y1="307.66" x2="8510.56" y2="350.57" xlink:href="#linear-gradient-11"/><linearGradient id="linear-gradient-25" x1="8145.87" y1="379.25" x2="8145.87" y2="439.83" gradientTransform="matrix(-1, 0, 0, 1, 9678, 0)" gradientUnits="userSpaceOnUse"><stop offset="0" stop-color="#68865e"/><stop offset="1" stop-color="#4f7220"/></linearGradient><linearGradient id="linear-gradient-26" x1="8006.05" y1="423.54" x2="8006.05" y2="461.12" xlink:href="#linear-gradient-18"/><linearGradient id="linear-gradient-27" x1="8692.95" y1="836.03" x2="8501.73" y2="254.9" gradientTransform="matrix(-1, 0, 0, 1, 9678, 0)" gradientUnits="userSpaceOnUse"><stop offset="0" stop-color="#538e00"/><stop offset="0.2" stop-color="#569000"/><stop offset="0.37" stop-color="#619800"/><stop offset="0.53" stop-color="#73a400"/><stop offset="0.69" stop-color="#8cb501"/><stop offset="0.84" stop-color="#adca01"/><stop offset="0.99" stop-color="#d4e502"/><stop offset="1" stop-color="#d7e702"/></linearGradient><linearGradient id="linear-gradient-28" x1="7710.98" y1="568.46" x2="7710.98" y2="626.43" gradientTransform="matrix(-1, 0, 0, 1, 9678, 0)" gradientUnits="userSpaceOnUse"><stop offset="0" stop-color="#4d9c20"/><stop offset="1" stop-color="#615a16"/></linearGradient><linearGradient id="linear-gradient-29" x1="7495.18" y1="850.66" x2="7495.18" y2="895.19" gradientTransform="matrix(-0.81, -0.08, -0.1, 0.99, 8607.68, 303.07)" xlink:href="#linear-gradient-28"/><linearGradient id="linear-gradient-30" x1="7381.04" y1="530.07" x2="7381.04" y2="595.24" gradientTransform="matrix(-1, 0, 0, 1, 9678, 0)" gradientUnits="userSpaceOnUse"><stop offset="0" stop-color="#5ba126"/><stop offset="1" stop-color="#8e9920"/></linearGradient><linearGradient id="linear-gradient-31" x1="6993.76" y1="1038.36" x2="6993.76" y2="1123.28" gradientTransform="matrix(-0.99, -0.15, -0.15, 0.99, 9125.01, 609.27)" gradientUnits="userSpaceOnUse"><stop offset="0" stop-color="#5bb826"/><stop offset="1" stop-color="#8e8320"/></linearGradient><linearGradient id="linear-gradient-32" x1="6875.78" y1="1215.19" x2="6875.78" y2="1277.4" gradientTransform="matrix(-0.98, -0.21, -0.21, 0.98, 8909.2, 829.76)" xlink:href="#linear-gradient-30"/><linearGradient id="linear-gradient-33" x1="7903.88" y1="630.67" x2="7903.88" y2="685.3" xlink:href="#linear-gradient-28"/><linearGradient id="linear-gradient-34" x1="6908.36" y1="492.66" x2="6908.36" y2="539.5" xlink:href="#linear-gradient-28"/><linearGradient id="linear-gradient-35" x1="6989.99" y1="497.48" x2="6989.99" y2="545.29" gradientTransform="matrix(-1, 0, 0, 1, 9678, 0)" gradientUnits="userSpaceOnUse"><stop offset="0" stop-color="#5b9a26"/><stop offset="1" stop-color="#8e8320"/></linearGradient><linearGradient id="linear-gradient-36" x1="7393.05" y1="953.03" x2="7431.33" y2="570.04" gradientTransform="matrix(-1, 0, 0, 1, 9678, 0)" gradientUnits="userSpaceOnUse"><stop offset="0" stop-color="#538e00"/><stop offset="0.2" stop-color="#569001"/><stop offset="0.37" stop-color="#619706"/><stop offset="0.53" stop-color="#73a30d"/><stop offset="0.68" stop-color="#8bb417"/><stop offset="0.83" stop-color="#abc924"/><stop offset="0.97" stop-color="#d2e334"/><stop offset="1" stop-color="#dae837"/></linearGradient><linearGradient id="linear-gradient-37" x1="7234.42" y1="760.37" x2="7234.42" y2="577.19" xlink:href="#linear-gradient-10"/><linearGradient id="linear-gradient-38" x1="8771.28" y1="563.95" x2="8771.28" y2="657.87" gradientTransform="matrix(-1, 0, 0, 1, 9678, 0)" gradientUnits="userSpaceOnUse"><stop offset="0" stop-color="#4f801e"/><stop offset="1" stop-color="#1d4d12"/></linearGradient><linearGradient id="linear-gradient-39" x1="8632.13" y1="588.06" x2="8632.13" y2="696.49" gradientTransform="matrix(-1, 0, 0, 1, 9678, 0)" gradientUnits="userSpaceOnUse"><stop offset="0" stop-color="#2f8720"/><stop offset="1" stop-color="#1d5212"/></linearGradient><linearGradient id="linear-gradient-40" x1="8529.56" y1="645.84" x2="8529.56" y2="719.09" gradientTransform="matrix(-1, 0, 0, 1, 9678, 0)" gradientUnits="userSpaceOnUse"><stop offset="0" stop-color="#236618"/><stop offset="1" stop-color="#1d4d12"/></linearGradient><linearGradient id="linear-gradient-41" x1="9102.68" y1="484.8" x2="9102.68" y2="594" gradientTransform="matrix(-1, 0, 0, 1, 9678, 0)" gradientUnits="userSpaceOnUse"><stop offset="0" stop-color="#2c801e"/><stop offset="1" stop-color="#1d4d12"/></linearGradient><linearGradient id="linear-gradient-42" x1="9194.52" y1="467.17" x2="9194.52" y2="596.35" gradientTransform="matrix(-1, 0, 0, 1, 9678, 0)" gradientUnits="userSpaceOnUse"><stop offset="0" stop-color="#567a1c"/><stop offset="1" stop-color="#1d4d12"/></linearGradient><linearGradient id="linear-gradient-43" x1="9283.6" y1="470.42" x2="9283.6" y2="586.2" xlink:href="#linear-gradient-39"/><linearGradient id="linear-gradient-44" x1="8977.07" y1="480" x2="8977.07" y2="627.26" gradientTransform="matrix(-1, 0, 0, 1, 9678, 0)" gradientUnits="userSpaceOnUse"><stop offset="0" stop-color="#78a226"/><stop offset="1" stop-color="#1d5212"/></linearGradient><linearGradient id="linear-gradient-45" x1="8958.33" y1="782.94" x2="8901.59" y2="565.28" gradientTransform="matrix(-1, 0, 0, 1, 9678, 0)" gradientUnits="userSpaceOnUse"><stop offset="0" stop-color="#457500"/><stop offset="0.31" stop-color="#487803"/><stop offset="0.58" stop-color="#53830b"/><stop offset="0.82" stop-color="#649419"/><stop offset="1" stop-color="#75a627"/></linearGradient></defs><title>grass-part</title><g class="cls-2"><g id="Layer_2" data-name="Layer 2"><g id="Layer_1-2" data-name="Layer 1"><g class="cls-3"><g class="cls-4"><path class="cls-5" d="M2442,345.09c.83-3.64-2.49-12.93-5.27-15.65-2.21-2.17-4.79-1.27-7-2.67-3.57-2.31-2.15-5.09-8-5.1-2-7.87-6.79-4.57-12.35-6.57-10.21-3.68-3.8-4.71-14-1.42-2.68.86-8.86,4.38-12.55,3.18-6.55-2.12-4-11.07-10.15-9.44,0-2.12-2.07-4.29-2.22-6.33a27.73,27.73,0,0,0-3.88.49c-3-6-10.75-6.33-17.15-7.94.08,9.24-14-3.07-14.59,7.25-4.2-1.07-8.55-1.5-9.14,2.49-11.06-.12-22.44,5.1-20.23,15.94,1.44,7.1,7.44,6.86,15.41,8.83,16.36,4.06,32.1,8.4,47.81,13.84,15.42,5.34,37.34,11.08,54.35,12.16C2428.92,354.54,2439.8,353.87,2442,345.09Z"/><path class="cls-6" d="M2328,324.3c6.9-7.8,3.2-7.55-2.08-11.58-2.19-1.67-3.17-3.74-5-5.06-2.7-1.92-6,.45-7.32-4-6.89,1-6.1-2.79-10.24-5.32-4.83-3-5.79-3.79-12-4.41-8.59-.85-16.82,2-18.45-7.71-3.34.13-4.68-.58-7.21,1.4-4.17-1.27-9.19-1.25-13,1.1-4.73-3.06-7.6-12.83-16-8.12-1.95-2.53-4.69-2.17-7.26-3.55-1,1.34-1.45,6.08-2.11,6.56.36-.27-7.47,4.79-6.49,3.44-2.44,3.38-4.81,9.4-5.92,13-7.34.21-14.3,1.69-20.62,1.8-12.55.23-10.43-5.51-10.94-13.19-.54-.35-2.06-.13-2.73-.27-2.3-3.95-4.87-.52-8.7-2.45s-2.44-5.52-9.53-6.28c-4.52,3.51-14.86.85-19.79,6.24-2.65-.36-5.06.5-7.85-.38-3.58,8.45-5.13,19.17,1,25.78,13.38,14.44,47.33,19.76,67.52,20.94,19.65,1.15,39.92,2.26,59.46,4.07,15.46,1.43,45.16,11.58,59.28,1.1,4.84-3.6,4-8.86,10.57-11.49C2328.23,326,2324,326,2328,324.3Z"/><path class="cls-7" d="M2083.57,297.7c0-5.89,1.79-12.86-8-12.59-.13-1.37-1.21-2.54-1.37-3.91-10.59,1.31-16.16-7.75-25.12-7.48-.59.67.08,1.4-.08,2.08-4-2.4-3.39-.67-6.1.7-1,.52-7,3.48-8.83,4.75-7.23,5-7.76,8.05-1.69,12.53C2039.71,299.16,2077.49,309.29,2083.57,297.7Z"/><path class="cls-8" d="M2013.31,298.53c3.87-5.56-7.38-17.06-13.31-18.35-4.56-1-8.05,1.61-13.21-1.38-3.46-2-3.19-10.09-9.39-5.32-2.57-1.64-5.73-2.22-8.76-3.37-.93-5.6-7.92-5.06-12.31-6.16-14-3.5-11.47-1.28-14.45,8.65-4.77.52-9.21,2.67-10.18,6.67-4.75-.22-9.78-.76-11.92,2.79a14.33,14.33,0,0,0-13.24-1.91c-2.19-5.65-17.17-13.79-24.59-14-.3,1.93-1.75,4-.95,6.39-6.38-9.84-16.19,2.73-23.37,3.7-.41,7.07-6,2-10.19,2.49-6.17.75-8.19,3.12-13.35,4.55-10.12,2.79-31.28,8.91-24.74,21.11,4.27,8,17.27,9.24,27.72,10.64,28.15,3.79,63.18,3.88,91.46.65,29.53-3.38,58.07-8.23,87.7-9.77a10.8,10.8,0,0,0,0-4.81C2015.07,301.53,2014.26,302.53,2013.31,298.53Z"/><path class="cls-9" d="M1840.2,294.37c9.32-3.13-4.85-20.73-11-21.51a11.85,11.85,0,0,1-.1,2.1c-3.41-6.73-12.88-3.44-14.43,2.72-8.73-4.13-12.75.05-14.09,6.61-5.4-1.24-14.7-4-13.44,4.18-2-.37-4.88.59-6.85.21-1,6-11.5,1.74-16.39,4.85-13.5,8.57,5.93,16,15.23,16.61,16.8,1.19,33.78-4.3,49.94-5.14C1835.32,304.67,1848.71,305,1840.2,294.37Z"/><path class="cls-10" d="M1720,312.66c-1.51-7.22-10.3-6.7-16.11-9.15-2.46-1-6.93-10-10.59-2.57-6.33-3.38-11.18-1.8-16-2.33s-7.6-4.19-11.18-5.11c-8.76-2.26-20.86,6.21-27.29,1.75-4,4.81-9.73,7.56-13.66,11.45-6.41-1-10,4.54-11.66,8.91-4.42,11.89,10.56,14.43,23.61,13.65,18.63-1.11,41.23-1.84,58.46-8.29C1702.72,318.3,1708.61,314.17,1720,312.66Z"/><path class="cls-11" d="M1651.82,319.31c14.1-6.62-1.23-12.46-9.16-15.82-1.65-.7-4.45.71-6.16-.11-2.31-1.11-1.48-4.62-4.05-5.57-4.67-1.72-12.58-2.29-15.17,2.18-4.5-6.09-22.43-8.29-25.71-1.6-6.67,2.32-4.59,3.35-13,4-4.88.36-12.51-3-15.42,3.37-6.62-3.2-17.4-3.38-17.37,4.3-1.24.07-2.53.09-3.77.25-.18,3.86-2.45,6.72-3.37,10.56-5.3.26-10.78,0-16.11.25-.16.8.05,1.46-.18,2.25-3.57.2-7.32.11-10.89.25-1,5.65-12.25,9.9-12.51,15.66-.66,14.68,28.54,8.66,37.69,7.73a400.85,400.85,0,0,0,67.93-12.65c9.14-2.57,18.3-6.9,27.91-8.21,5.65-.77,11.78.72,17.33-.34C1653.27,325.14,1651.45,320,1651.82,319.31Z"/><path class="cls-12" d="M1551,335.94c-2.33-5.7-11.74-7.4-17.32-7.3-3.25.06-7.06,1.42-10,1.52-2.31.08-6-.59-8.28-.42-7.43.58-8.27,1.62-16.93-1.53-5.9-2.15-13-5.3-19.62-4.62,0,3.81-6.55,7-9.91,9.79-.89.75-3.39-.65-4.3.19s-1,3.93-1.18,4c-3.56,1.91-5.74,1.67-10.75,3.34-2.7.9-2,4.19-5.64,4.92-1.37.27-9.1-1.24-10.14-1.55-9.84-2.91-20.94-7.15-32.45-4.34.5.9.2,2.69,1,4-2.18-.46-6.67-1.41-9-.62-7.59,2.57-3.7,3.82-7.41,6.54-4.92,3.61-21.63,2.32-19.52,11.72-3.63.52-25.17,6.62-27.18,9.52-2.45,3.53,3.51,5.95.07,9.53-4.9,5.1-11.65.24-10.22,10,3.78,25.75,57.54-9.05,71.06-14.14,38-14.28,80.86-20.58,121.21-27.48C1530.93,347.92,1554.81,343.53,1551,335.94Z"/><path class="cls-13" d="M1311.36,454.07c8.87,11.54,24.77,18,40,23.52,150.67,54.82,316.21,78.92,481.08,83.16s329.62-10.89,492.56-31.83c74.39-9.56,220.35-27.93,246.13-99.64,8.73-24.26-3.71-42.51-26.34-56.5-45.74-28.28-133.16-39.19-171.78-47.3-166-34.87-338.84-45.35-509.75-35.79l-9.83.57Q1798,293.6,1743,299.72A2291.69,2291.69,0,0,0,1402.07,364q-4.46,1.18-8.91,2.4c-24.74,6.74-50.24,14.32-68.55,29.48S1297.51,436,1311.36,454.07Z"/><path class="cls-14" d="M1814.12,314.82s-26,20-27.49,36.16c64.15-22.45,194-39.91,281-20-100.81-3.74-276.45,36.16-270.34,36.16S2127.23,317.31,2364,383.4c71.79,87.29-273.4,108.49-273.4,108.49L1791.21,437l-119.13,38.66-221.47,22.45s151.21-87.29,264.23-112.23c-146.63,26.19-247.43,67.34-247.43,67.34s320.74-155.88,378.78-157.13C1811.07,309.83,1814.12,314.82,1814.12,314.82Z"/><path class="cls-15" d="M1402.07,364a91.65,91.65,0,0,0,8.84,9.45c482.65-138.42,847.68-62.36,847.68-62.36s-62.62-8.73-203.14-7.48c174.12,6.24,349.76,53.63,354.34,53.63s-53.46-21.2-132.88-42.4C2393,326,2542.67,373.43,2542.67,373.43l2.14-.66c-45.74-28.28-133.16-39.19-171.78-47.3-166-34.87-338.84-45.35-509.75-35.79l-9.83.57Q1798,293.6,1743,299.72A2291.69,2291.69,0,0,0,1402.07,364Z"/><path class="cls-16" d="M1772.88,425.8c15.27,12.47,13.75-6.24,13.75-6.24s-76.21-69.14,76.64-129.88l-9.83.57C1799.44,310.14,1702.32,365.2,1772.88,425.8Z"/><path class="cls-17" d="M2647.7,336.77c9.07-7.64-8.15-9-14.48-9.33-5-.25-5.52-.66-10-1.5-3.49-.65-4.3-3.72-9.16-2-.55-2.23-2.53-3.38-3.31-5.45-1.74,4.3-6.41,5.93-11.76,4.22-4,10.12-5.26,14.09-20.29,16.52-4.34.7-16.43,2.64-20.44.64-5.85-2.91,1.47-10.57-7.13-10.76.15-4.94-6.93-4.78-8.3-3.08.09-3-2-5.28-5.45-6.71-1,.91-3.61,1.59-4.53,2.38-1.87-5.37-15.12-15-16.64-5-8.76-8.11-13.89-9.48-21.34,1.43-3.26-1.65-5.84-.72-9-1.29.19,5.32-7.16,7.67-13,6.65a14.08,14.08,0,0,0-.18,3.18c-3.37-.89-7-1.74-10.33-2.43,1.44,6.6-1.9,9.67-3,16.24-3.69,21.84,23.43,18.24,41.73,20.65,30.24,4,60,7,90.62,8.58,19.84,1,39.76,3.95,53.12-10.67C2650,353.44,2648.41,345.39,2647.7,336.77Z"/><path class="cls-18" d="M2380.91,356.73c-2.38-4.14-7-9.28-13-6.78a13.67,13.67,0,0,0-9.08-3.09c-.29.8-.24,1.52-.56,2.32-3.82-4.9-11.73-5.38-16.91-1.67-3.48-6.9-22-6.55-19.65,2.31-11.5-.43-8.44,6.78-20.13,5.32-1.24,8-7.38,8.42-10.73,14-4.9,8.21,17.29,13.51,26.89,13.35,7.78-.13,16.54-6.55,24.56-7.95,7.42-1.3,15.24-1.26,22.55-2.92C2372.89,369.83,2378.21,367.45,2380.91,356.73Z"/><path class="cls-19" d="M2500.05,344.26c3-4.74-.26-9.61-7-9.25-.15-3.79-2.54-9.44-7.08-6-1.07-9-12.21-14.52-22.37-10-4.78-3.5-11.74-3-14.77,1.84-5-3.48-12,4.06-16.24,7.51-2.74-2-5.48-1.92-8.84-2.31-.21.79-.08,1.49-.3,2.29a12.38,12.38,0,0,0-10-1.83c-2.44-5.64-8.28-6.26-9.89,0a19.91,19.91,0,0,0-14.52-1.52c.3,1.23-.3,2.8,0,4-6.39.33-8.63,4.36-7.24,9.08-10-.31-12.76,9-22.17,4.49-.89,2-2.37,1.59-3.2,4-2-1-6-.79-8-1.49,1.5,7.89-9.91,3.61-9.52,10.88,1.22,22.84,55.64,16,70.43,13.13,16.69-3.21,33.23-6.79,50-9.51,8.12-1.32,16.37-.18,24.35-1.31C2495.2,356.77,2491.68,349.58,2500.05,344.26Z"/><path class="cls-20" d="M2691.49,340.1c-.13-7.05,4.55-8.92,10.46-11.4,2.67-1.12,3.09-2.56,5.83-3.4,2-.6,4.17,1.57,7.17.36,4.07-1.64,4.13-5.88,9.12-7.17s11.69-.21,13.49,4.09c10.56-11.26,15.75,9,27.06,6.86,4.53,4.59,20.09,12.49,3.23,17.34-5.86,1.69-15.73,1.11-22.28,2.06-8.47,1.23-16.79,1.26-25.36,1.24-10.09,0-23.67.27-28.78-8.41C2691.62,339.9,2691.61,344.09,2691.49,340.1Z"/><path class="cls-21" d="M2116.39,484.91c3.87,12.47,15.17,22.46,27,30.91,41,29.16,91.58,53.84,145.84,56.52,79.7,3.93,159.44,3.85,235.53,14.29q12.94,1.77,26,2.91,24.52,2.15,49.27,2.17c73,.21,146.8-12.49,215.68-31.93,23.25-6.56,46.48-15.13,65.45-27.64a121.55,121.55,0,0,0,10.7-7.88A100.56,100.56,0,0,0,2903,513.6,89.52,89.52,0,0,0,2919,488a106.78,106.78,0,0,0,7.44-31.56c2-23.25-2.57-47.37-10.66-68.08-14.35-36.66-43.15-43.53-87.51-47.5-66.2-5.91-133.43-9.43-200.59-9.42q-21,0-41.88.47-15.56.35-31.1,1-9.62.37-19.22.89-6,.3-11.89.66-13.9.82-27.75,1.9-8.74.66-17.45,1.45-9.52.84-19,1.8-4.4.44-8.77.91-6.89.74-13.76,1.55c-1.91.22-3.83.45-5.74.68l-1.47.18c-2,.24-4,.5-6,.76l-5.71.75q-5.07.66-10.12,1.38-4.23.59-8.46,1.22-7.5,1.11-15,2.31-11.58,1.86-23.1,3.95-16,2.89-31.84,6.24a981.7,981.7,0,0,0-112.57,30.66c-38.2,13-77.81,30.59-95.1,61.27C2115.86,461.91,2112.94,473.81,2116.39,484.91Z"/><path class="cls-22" d="M2450.6,340.54c76.42,50.15,130.14,192.91,149.46,251.17,5.2,15.68,7.92,25.24,7.92,25.24h-50.91q-3-14-6.28-27.41c-33-133.58-89.3-216.06-113.95-247.45Q2443.72,341.27,2450.6,340.54Zm8.77-.91c39.85,19.49,111.51,70.36,201.57,202.5h42.77s-96.49-161.43-225.35-204.31Q2468.84,338.66,2459.37,339.62Zm64.19-5.15q-13.9.82-27.75,1.9c67.54,17.19,173.06,66.69,271,207.42h42.77S2711.67,372.79,2523.56,334.48Zm31.11-1.55q-9.62.37-19.22.89c80.14,13.9,213.88,58.24,319,198.33h42.77s-1.73-2.85-5.28-7.88C2868.29,490.81,2764.23,360.93,2554.67,332.93Zm31.1-1c73.36,7.92,215.6,38.66,333.2,156.09q13.79,13.77,27.09,29.16V477.28s-6.4-8.23-19.64-20.81c-38.44-36.55-134.53-109.84-298.76-125Q2606.7,331.47,2585.77,331.94ZM2436.92,565.41h34.62c-1.62-84.52-30.21-184.76-41.9-222.45-2,.24-4,.5-6,.76C2421.84,406.73,2436.92,565.41,2436.92,565.41Zm-89.61-15h34.62c9.89-117.59,26.62-179.23,36-206q-5.07.66-10.12,1.38C2352.42,417,2347.31,550.44,2347.31,550.44Zm-81.46-21.62h32.59c28.94-102,73.17-156.19,100.87-181.76q-7.5,1.11-15,2.31C2288.28,413.68,2265.85,528.83,2265.85,528.83Zm-73.32-18.29h34.62c35.51-86.06,91-132.63,134.08-157.21q-16,2.89-31.84,6.24C2228.11,414,2192.53,510.53,2192.53,510.53Z"/><path class="cls-23" d="M1512.25,603.77c24,20.7,56.54,33.26,88.74,44.31,315.26,108.08,682.76,110.27,999.91,5.94,39.61-13,120-33.06,134.84-70.13,17-42.16-43.16-65.66-79.79-80a1532.91,1532.91,0,0,0-339.41-89.39c-78.32-11.33-157.76-16.82-237.24-19.37-40.52-1.3-81.43-1.75-122.3-.87q-4.9.1-9.81.23C1810,398.12,1673.55,417.27,1554,470.58c-28.79,12.83-58.19,29.43-68.67,54.8C1474.15,552.41,1488.22,583.07,1512.25,603.77Z"/><path class="cls-24" d="M2341.2,613.06c-9.56-14.25-24.6-29.33-38.4-40.93-7-5.92-15-9.27-20.71-16.44S2273,540,2267.78,532.48c-16.07-23-38.81-41.79-64.3-58A492.46,492.46,0,0,0,2076,416.85c-16.2-4.62-33.65-6.88-49.18-12.27,24-1.5,40.88,4.71,62,9.62,20.07,4.66,40.87,5.88,61.89,7.65,22,1.86,44.26-.36,66.44,1.87a276.69,276.69,0,0,1,59.87,12.95c-26.78-3.37-52.71-4-80-4-12.35,0-26.69-.87-37.31,3.33,9,2.83,18.07,2.47,27.66,6.72,6.56,2.91,15.57,4.59,22.78,5.44,15.84,1.86,34.47.63,51.42,1.12,49.18,1.41,100.92,13.18,145.78,29.24-54.85-7.46-109-16.76-165-15.08,65.31,0,133.43,19.95,192.9,40.49,11.89,4.11,26.57,8.59,36.35,15.86,6.63,4.92,40.12,29.81,36,39-2.77,6.11-22.36,8.06-29.13,9.41-16.5,3.29-27.9,5.09-42,12.47-18.49,9.65-39.77,8.75-60.48,14.18-14.6,3.83-21.92,13-36.78,14q10.86,6.49,21.38,13.36Z"/><path class="cls-24" d="M2620.21,500.83s-172.09-72.33-318.72-82.31c104.88,13.3,183.29,45.73,183.29,45.73s-31.57-7.48-104.88-14.13c85.54,21.62,185.33,82.31,185.33,82.31Z"/><path class="cls-25" d="M2231.22,544.06c-7.16-9-12.56-19.88-18.37-28.68-3.11-4.71-1.17-9.45-3.73-13.93-2.29-4-11.5-9.54-15.65-12.1-6.89-4.25-16.07-13.48-24.65-16.6-2.16-.79-6.55-.15-8.38-1.08-3-1.55-3.37-3.74-6.52-5.79-3.73-2.42-10.27-5.67-14.86-6.65-11.17-2.37-26.43-2.55-38.06-3.3-12.9-.83-26.91-2-39.75-1.81,9.83-9.56,44.9-4.56,59-3.3-16.71-12.87-39.45-5.67-59-11.72,7.5-3,14.93-2.82,23.36-3.26-8.42-5.55-12.41-5.94-22.21-8.82-6.77-2-11.81-7-17.71-9.2-15.35-5.76-36.82-4.41-53.48-5.88,6.72-3.11,13.63-2.38,20.12-4.41-9.17-4.18-23.38-.51-30.46-7.13,29.87-1.64,59.58,10.36,87.55,18.54,25.67,7.5,51.93,14.34,75.8,25.3a570.33,570.33,0,0,1,102.16,60.63c9.31,6.94,15.57,16.87,20.53,26.23,3.84,7.26,6.52,9.06-1,12.82-6.33,3.19-23.64.41-31.85,0a18,18,0,0,0,5.32,6Z"/><path class="cls-24" d="M2229.19,549.88S2106,509.14,1970.54,506.65c74.33-6.65,178.2,0,178.2,0s-188.38-44.9-379.82-20c60.08,69,157.83,109.74,157.83,109.74Z"/><path class="cls-25" d="M1743.47,464.24c-2.78,1.33,138.49-21.62,266.79-7.48C1867.7,427.66,1773,450.11,1743.47,464.24Z"/><path class="cls-26" d="M1957,394.22q-4.9.1-9.81.23c89.79,9.74,280.33,51.85,378.58,232.8h27.49S2277,420.31,1957,394.22Z"/><path class="cls-27" d="M814.79,305.53c.47-15.07-22.11-8.06-28.54-16.61-7.76,7.65-19.13-9.67-27.55-6.62.47-6.35-5.66-6.63-8-1.5-4.22-3.17-11.38-4.7-14.61.89-2.63-3.46-7.46-4.6-12-3-1.18-4.07.56-7.74-.06-12.19-1.25.32-3.05-.16-4.71.57-1.69-6.45-10.6-10.83-16.56-7.62.59-6.34-11.17-7.68-11.18-.82.82-8.89-13.49-5.46-13.4,2-6.36-2.45-13.94-.85-13.15,6.43-10.37-2.94-12.44.36-12.28,9.12-2.49-.63-6.62.08-9-.7.68,6.29-6.49,7.17-12.14,6.43a21.63,21.63,0,0,1-.18,2.5c-4.92-.49-12.79-3.24-13.31,2.72-2.68-.25-6.07.77-8.71.27-.14.83,0,1.54-.19,2.41-11.51,1.75-20,7.25-8.34,14.28,11.33,6.81,32.28,4.85,44.85,5.53,28.72,1.56,56.28,2.49,84.93,5.89,17.79,2.11,35.75,3.13,53.66,4,6.05.3,13.32,1.73,18.55-.18,3-1.09,9.45-7.2,10.1-10C814.95,309.36,814.22,310.39,814.79,305.53Z"/><path class="cls-28" d="M647.79,299.12c4-3.35,4.79-13.93-2.11-13.11,1.72-5.7-3.35-9.83-9.16-7.37.28-5.93-7.51-8-10.12-2.23-2.86-4.16-7.28-7.36-13.06-5.1-1.54-4.71-7.08-6.2-8.35-1.05,1.23-5.56-1.3-10.79-8.16-9-3.63-4.31-10.77-2.85-11.37,3-5.31-2-12.47-.63-12.2,6.19-4.08.27-6.48,2.85-6.09,6.61-4.24-1.12-10.05-3.91-11.2,1.61-5.19-1.89-12-.32-9.39,5.72-20.22,4.09,9,24.47,15.61,26.94,16.31,6.1,27.95-2.55,43.84-3,4.92-.15,10.64,1,13.38-1.7,4.3.34,7.77,3.07,12.09,4,8,1.64,6.26-.33,12.29-2.33C647.28,307.06,652.85,306.15,647.79,299.12Z"/><path class="cls-29" d="M525.6,306.45c1-5.48-1.11-11-8-10.21C519,285.37,501.72,289.86,497,286c.68-6.59-11.8-15.74-13.95-7-1.43-9.56-7.25-1.94-10.94,0-5.17,2.77-13.07,2.12-16.88,6.53-4.68-2.6-4.87-18.76-17.08-11.66-1.75-7.54-12.52-11.13-14.42-2.23-2.37-3.08-9.61-6.16-12.3-7.29-4.57-1.91-16.81-8.61-16.37,1.77-7.48-4.38-33.95,2.38-31.45,12.79-19.29.16-37.23,14.09-20.33,31.28,14.26,14.51,56.94,12.16,75.76,12.73a550,550,0,0,0,71.79-2.79c6.73-.69,24.73,1.34,30-3.36C524.48,313.47,523.3,309.26,525.6,306.45Z"/><path class="cls-30" d="M453.3,313.77c.26-7.37.31-15.61-9.05-18.21,3.08,2.51,3-1.66.52-4.87-3.52-4.62-9.24-5.7-14.61-3.55-2.37-4.3-8.63-6.86-10.49-1.05-2.25-5.87-9.51-14.17-15.25-7-4.64-2.64-9.35-.57-10.43,4.37-9.18-5.89-15.61,3-20.29,9.09-5.19-.32-11.77-.92-11.17,5.31-9.08,1.09-6.92,14.06-3,18.89,8.72,10.86,30.06,10,42.95,10.9C422.12,329.07,435.85,327.91,453.3,313.77Z"/><path class="cls-31" d="M956.33,316.51c-1.44-13-22.74-2.62-21.53-14.53-7.11,1.11-9.79-11.06-16.14-5.9-1.85-3.48-4.74-7-8.89-5.26-2.13-4.2-9.41-8.1-11.65-2.75-7.1-4.59-20.35-6.26-18.31,5.46-4.09-.33-6.1,1.64-6.11,5.48-7.08-.33-9.87,5.58-9,11.1,1.53,10.12,11.65,9.83,21.59,11.19,22.22,3,50.4,13.22,69.9-.87C956.55,321.22,956.6,322,956.33,316.51Z"/><path class="cls-32" d="M1330.83,359.92c-3.41-3.56-9.15-3.26-11.71-6.12-3.57-4-1.73-13.08-10.38-13.11-1.07-4.36-4.54-7.74-9.08-5.64-.29-10.9-12.19-2.34-18.67-3.55-.33-5.41-5.21-14.86-11.94-9.55-1.46-5.45-7.58-4.82-9.07.54-1-8.63-11.74-1.31-11.28,4.48-4.3-1.19-13.26-5-12,2.54-2.7-.4-6.27.6-8.92-.17-3.31,7.72-19.27-1.53-20.88,9.56-2.24,15.46,35.6,13.88,44.76,14.67,19.9,1.71,36.77,4.9,55.75,8.67C1313.39,363.44,1323.34,366.06,1330.83,359.92Z"/><path class="cls-33" d="M1240,345c7.14-2.71,1.95-8.61-4.58-9.07-.08-3.72-2.49-6.47-6.62-6.95-.13-4.28-4-20.74-10.44-14.16.58-6.72-9.29-8.11-10.24-1.22,1-6.24-7.17-8.61-8.52-2.09-5.14-4.86-16.85-5.78-16,3.62-7.87.92-3.44,9.26-10.2,11.76-6.12,2.26-15.81-7.06-19.52,1-4.59-1.32-13.89-24.34-20.93-11.75-3.05-3.83-8.42-5.33-13.47-4.37-.16.9-.11,1.58-.23,2.51-5.28.59-10.77.63-16.08,1.19a24.3,24.3,0,0,1-.41,3.48c-2.62-1.13-5.87-.54-8.48-1.13,1.3,5.38-4.59,9.14-2.2,14.3,4.84,10.46,40,7.89,48.7,9.48,27.73,5.06,55.72,9.31,84,8.85C1230.47,350.42,1241,351.84,1240,345Z"/><path class="cls-34" d="M1451.3,397c8-.26,14-16.09,21.59-8.29,3.12-1.82,7.26-2,11-1.18-1.13-6.27,8.14-7.56,12.61-4.86,6.53-8.78,24.75,1.24,24.07,9.85,4.74-5,19.74,2,20.23,7.34,10.72-5.89,9.18,11.26,19.16.21,1.47-1.63.64-6.37,2.42-8.61,3.28-4.12,11.91-8.71,11.33.91a40.28,40.28,0,0,1,12.76-1.9c.29,5.22,4.26,8.13,10.08,7.41.21,2.87,1.19,6,1.22,8.84,11.66-.77,16.21-2.07,15,10.36-.6,5.93-1.4,12.89-7.85,15.93.32,1.32-.07,3.1.3,4.48-15.08,7.22-46.28-3.95-61.64-8.33-17.87-5.1-35-10.37-53.54-13.17-9-1.35-39.53-3.69-38.32-17.1C1453.88,399.84,1453.39,401.12,1451.3,397Z"/><path class="cls-35" d="M1635.53,440.09c-.25-8.92.22-14.88,12.11-12-1.07-8.17,22.46-4.43,22.69,3.62,5.3-.9,5.41,2.21,9,3.58,1.25.48,2.82,3.19,4,3.95s3.39-1.73,4.64-1.08c7.22,3.77,7.15,5.51,16.61,5.71,1,9.23,10.89,17.4-6,17.23-18.59-.19-51.8-4.6-63-19.9C1635.81,442.27,1636.47,443.12,1635.53,440.09Z"/><path class="cls-36" d="M2.67,623.54c2.7,30.08,6.54,60.38,17.61,88.86,13.35,34.33,36.84,64.94,64.28,91.65,123.37,120.11,315,158.4,495.18,180.57,137.08,16.87,275.87,28,413.78,17.94,154.59-11.3,305-49,456.72-78,103.37-19.75,207.94-35.52,313.48-40.59,51.37-2.47,103.36-2.44,153.41-13.12,41.43-8.83,80.53-24.79,118.72-41.69,15.58-6.89,31.61-14.36,42.07-26.82,12.3-14.66,15-34,16.11-52.31,2-32,8.11-83.52-5.95-113.69-14-30-62.53-49.42-92.35-65.53-29-15.67-58.79-30.05-89.15-43.39q-27.33-12-55.2-23-16-6.3-32.2-12.32-10.89-4.05-21.84-8l-6.47-2.32q-6.31-2.24-12.63-4.44-5.06-1.77-10.13-3.51-4.69-1.62-9.38-3.2-5-1.69-10-3.36-5.25-1.76-10.52-3.5l-4.55-1.5-8.34-2.73q-6.9-2.24-13.82-4.45-8.37-2.68-16.78-5.31-7.29-2.29-14.58-4.53-11.68-3.6-23.4-7.09-9.06-2.71-18.13-5.36-8.31-2.43-16.65-4.81-14.51-4.16-29.06-8.16-22.85-6.3-45.82-12.25-12.74-3.31-25.52-6.51-24.56-6.14-49.23-11.9-20.82-4.87-41.72-9.46-39.41-8.68-79.07-16.39-37.8-7.36-75.78-13.87-51.87-8.91-104.1-16.28-40.55-5.71-81.19-10.54-159.8-19-321.24-24.68-163-6-325.44.22c-35.19,1.3-70.63,3.06-105.71,6.62-51.2,5.2-101.61,14.27-149.32,31.47C108.42,365.38,35.74,421.16,11,495.76-2.7,536.89-1.16,580.75,2.67,623.54Z"/><path class="cls-37" d="M2002.16,595.1c1.89-5.28,2.54-10.37-3.28-12.91-1.94-.85-6.65,1-8.31-.16-2.08-1.43-.66-4.45-1.64-6-5.63-9.2-10.78-7-22.12-7.53-.15.7,0,1.3-.2,2a27.47,27.47,0,0,0-8.63-2q-.09.62-.24,1.23c-1.65-.59-4-.33-5.87-.56a15.82,15.82,0,0,0-1.24,7.13c-7.32-3.19-11.69,2.05-11.46,7.9-4.38.28-5.34,3.62-3.3,6.62-7,4.4-7.6,20.56-1.51,26,2.31,2,9.8,5.63,13,7.49,6.09,3.51,21.77,3.35,22.88-4.35,5.77,10.12,20.57.24,20.54-8.06a8.28,8.28,0,0,0,5.29-8.68C2002.11,604,2006.42,601,2002.16,595.1Z"/><path class="cls-38" d="M2484.1,548.11c4.41-3.88,3.93-22.21-.67-21.21,2.52-6.13-4.86-10-8.41-6.4-1.44-2-4-2.76-5.9-3.63-4.15,8.82-13.57-8.8-14.16,4.45-5.36-1.51-7.81,2.6-7.6,7.71-5.18-.81-8.16,3.93-5.23,8.21-2.79,2.79,1.23,16.71,4.45,17,.42,6.47,10.25,7.65,13.93,2.76,2.32,2.91,5.93,4,9,1.48,3.44,6.16,10.46,4.44,10.49-3.06.81-.21,1.46.21,2.26-.05C2482.93,552.9,2484.11,552.69,2484.1,548.11Z"/><path class="cls-39" d="M2374.2,566.42c3.9-1.87,5.48-7.52,2-10.47-3.06-2.57-7.32-1.1-10.39-1.3-6.3-.42-11.52-1-18.32-.53.27-5-6.72-11.66-12.64-7.47-.71-4.78-5.41-5.43-8.47-1.92-3.58-2.77-8.25-1.73-9.79,2.12a9.4,9.4,0,0,0-10.26-.19c-.91-6-7-8.06-13.79-8.13-1.84-4.38-15.18-12-15-3.72-10-8.78-15.06-4.39-18.42,5.3-10.65-5.06-10.83,2.27-14.61,8.22-2.72,4.28-11,8.74-5.47,15-5.88-2.57-15.85-2.27-14.68,5.19-12.9-2.6-7.9,13.65-5.45,19.63,3.54,8.64,3.55,7.63,15.44,5.79,22.11-3.42,43.59,4.59,65.6-2,5.81-1.74,12-6.76,17.65-7.85,3.78-.74,6.36,1.12,9.87,1,4.09-.2,7-2.14,11.11-2.78,5.53-.87,11.23.56,16.75-.64C2364.7,579.61,2366.76,573.38,2374.2,566.42Z"/><path class="cls-40" d="M2132.35,605.42c3.2-3.22,5.72-10.6-.15-12.58,1.25-3.24-.9-5.08-5.11-5,1-4.38-3-14.52-8.95-7.64-8.27-17.28-18.69,6.42-26.88,10.25,1.49-4.53-6.85-15-10.7-9.39-.3-3.33-4.13-4.78-8.08-4,.38-4.87-7.73-7.9-10.91-3.33-2.29-4.63-9.51-5.42-14.68-3.57,3.43-7-5.07-7.71-11.81-8.69.38-5.68-14.5-15.91-16.48-8.63-7.84-1.75-11.67,1.39-9.47,7.51-8.09,1.35-9.49,11.22-10.44,17-4.49-.77-7.75,1.25-6.95,5.15-8,1-12-2.07-12.33,7.08-6.28-1.58-10.52.64-10.12,6-7.87-1.33-4.17,2.45-5.79,4.51s-6.53,7.9-6.9,11.06c-2.17,18.3,32.2,20.26,46.2,20.62a212.82,212.82,0,0,0,52-5c10.28-2.4,16.29-8.55,27-9.38,17.27-1.34,34.72-2.36,51.91-.79,2.66-3.35,2.32-7.6.46-11.19C2132.5,607.22,2131.78,609.45,2132.35,605.42Z"/><path class="cls-41" d="M1959,625.4c1.81-6.44,3.83-14-6.53-16,1.26-4.74,3.26-11-5.19-11.27-.32-3.48-14.2-12.34-17.95-13.94a53.08,53.08,0,0,0-8.94-3.15c-9-2.08-6.61-1.83-9.72,7.06-9.43-1.75-6.22,7.45-9.22,11.8-1,1.46-5.78,4.22-7.74,5.82-2.77,2.27.56,4.85-4.88,4.66.77,1.76-.73,2.06,1.44,4-4.3,2.91-6.84,9.17-.27,11.48-4.82-.16-5.85,14.3,7.51,13.19,6.89-.57,5.44-2.66,12.87-.64,9.17,2.49,9.48,3.22,18.52,1.13C1939.74,637,1950.2,636,1959,625.4Z"/><path class="cls-42" d="M1797.83,670.34c2.33-3.22,5.78-6.21,4.72-10.33-.78-.25-1.25-.12-2-.31a10.51,10.51,0,0,0,2.84-6.38c-7.48-1.33.94-10.17-8.65-8.77.35-3.89-.35-9.32-5.65-4.74,3.23-5.43-8.52-6.41-12.64-7.7-9.68-3-8.74-1.63-9.4,7.81-6.86-1.2-6.72,4.36-6.48,8.58-2.49,1.61-2.47,1.55-3.25,4.68-7.43-3.82-12.11,5-12.45,9.9-.06.79,3.54,1.85,3.79,3.32.15.88-2.14,3.82-2.31,5-.63,4.29.16,8.49,4,11.1,6,4.1,14,2.73,20.73,1.65,2.9-.47,8.5-.55,11.48-1.3C1787.7,681.56,1795.8,676.57,1797.83,670.34Z"/><path class="cls-43" d="M2806.8,504.33c.62-8.18-10.59-13.08-16.88-6.17-1.51-1.82-4.57-5.22-7.67-5.47-4.33-.35-4,2.11-6.9,2.91-6.11,1.71-9.85,0-10.95,7.45-6.21-.64-7.94.72-9.22,5.66-5.1-3.56-9.74.92-9.2,5.59-2.93-1.1-6.25-1.09-6.9,1.85-9.37-.91-17.94,3-16.59,10.74.69,4,2,7.09,6.08,7.73,3.61.57,11.14-1.91,15.41-2.06a90.13,90.13,0,0,1,13.58.44c14.63,1.71,27.84,6.45,42.93,6.5,14.37,0,15.84-4.72,16.31-15.14.39-8.63.44-14.4-8.49-19.47C2806.91,505.17,2808.13,505.49,2806.8,504.33Z"/><path class="cls-44" d="M2722.3,538.2c5.32-.36,26-8.77,13.86-11.9,3.41-3,5.62-12.44-3-11.38-.77-5.57-2.73-4.25-6.11-5.75-.37-.16-2.73.95-3.56.78-1.25-.24-1.47-2.56-2.76-3.06-1.47-.57-3.88-.57-5.35-1-3.12-1-3-5-7-1.12-1.69-3.88-6.4-5-8.47-.55-2.54-7.59-9.92-10.24-12.36.09-6.82-.74-11.71,2.82-10.72,8.64-6.33,0-6.76,4.71-7.72,9-.68.31-2.36,1-3.09,1.23-1.71-2.44-7.74-5.31-8.27-.74-1.55-8.81-10-.83-13.72-.41.33,1.19-.5,2.88-.05,4.12-7.09,2.07-11.64,12.27-3.77,16.42s23.23,1.81,31.88,1.32c11.51-.65,22.62,2.22,34.06,1.29C2711.83,544.65,2716.54,542.37,2722.3,538.2Z"/><path class="cls-45" d="M1540.14,756.57c1.57,7.1,6.79,12.25,13.94,16,11.37,5.94,27.61,8.27,41.64,9,291.94,16,584.84,15.21,877.45,14.37,85.27-.24,170.87-.51,255.29-10.28a1101.87,1101.87,0,0,0,214.21-46.57c8-2.59,16.22-5.49,21.46-11,5.76-6.07,6.81-14.18,7.65-21.83,5.26-48.44,14.17-110.21-15.46-155-24.82-37.51-102.22-31.53-149-33-31.88-1-63.3,3.86-94.76,8.73-21.52,3.34-43.05,6.67-64.79,8.11-59.73,3.93-120.27-6.5-179.53.73-45.21,5.52-87.58,21.07-131.81,30.5a621.27,621.27,0,0,1-66,10.07q-4.25.44-8.51.84-14,1.32-28.09,2.29c-8.79.62-17.6,1.16-26.4,1.68-34.45,2-69,3.5-103.26,6.87-70.16,6.91-138.49,21.67-205.87,39.37-41.43,10.87-82.5,22.86-123.42,34.83l-44.51,13-143.81,42C1563.62,724,1535.85,737,1540.14,756.57Z"/><path class="cls-46" d="M2894.19,537.05c-8.33.9-16.59,2-25,2.74-15.87,1.4-31.57,3.17-47.53,3.8s-31.83.74-47.72.75c-3.58,0-7.16,0-10.74-.1,29.19-7.72,60.26-15.53,118.5-9.11,4.4.48,8.68,1.12,12.89,1.88Z"/><path class="cls-46" d="M2333.42,656.09q23.58-1.7,46.38-2.9,25.61-.42,51.27,1.41c50.74,3.53,100.92,11.89,150.06,22.65,24.69,5.41,49,11.87,73.56,17.54,12.17,2.81,24.37,5.55,36.54,8.37,6.1,1.41,12.14,2.94,18.37,3.93s12.44,1.9,18.54,3.44c-7.34-1.94-14.11-4.75-21.25-7.08-6.45-2.11-13.21-3.71-19.79-5.53-13.79-3.81-27.54-7.74-41.52-11.07-48.87-11.62-98.25-22.19-148.58-28.65a727.1,727.1,0,0,0-102.57-5.74c42.68-2,82.54-2.86,117.53-3q7.7.45,15.39,1a852.54,852.54,0,0,1,100.74,13.44c33.74,6.73,66.65,15.88,99.22,25.65,16.4,4.92,32.63,10.24,49.09,15,16.26,4.73,33.13,8.28,49.89,11.64,33.33,6.69,67.28,9.69,101.45,11.92a.18.18,0,1,0,.06-.36c-19.29-3.68-38.48-7.71-57.49-12.24-18.74-4.46-37.69-8.25-56.38-12.87-67.47-16.67-132.64-38.91-202.38-49q-14.59-2.11-29.33-3.73c43,.86,68.9,2.42,68.9,2.42s-103.86-28.68-201.61-23.69c-31,1.58-61.52,2.16-88.76,2.21,14.23-1.85,28.59-3.24,42.9-4.29,35.27-2.59,70.49-4.24,105.58-8.36-37.16-.13-74-1.39-111.09,1.23a412.05,412.05,0,0,0-53.33,6.85c-6.3,1.28-12.64,2.68-18.83,4.36-12.75-.18-24.19-.44-33.86-.72,12-4.13,24.15-8.11,36.67-11.35,38-9.83,77.87-15.26,117.58-17.59,20.18-1.18,40.49-1.89,60.71-2q15.33-.09,30.66.34c9.75.27,19.84-1.14,29.52-.22-6.19-.5-12.44-2-18.54-3-5.39-.84-10.76-1.3-16.22-1.7q-17.08-1.23-34.21-1.83a591.56,591.56,0,0,0-121.12,8,513.45,513.45,0,0,0-58.88,13.74c-14.36,4.29-28.75,9-42.11,15.11-11.19-.42-17.59-.76-17.59-.76s194-77.32,343.65-44.89a1144,1144,0,0,0,120.38,19.33l-5.61-.16c-18-.6-36.12-1.55-54-3.35-17.58-1.76-35.36-2.19-52.95-4-1.5-.15-1.45,1.57-.32,2,18.68,6.36,37.84,10.79,58.09,12,34.59,2.06,70,.77,104.5-1.5l5.72-.38c42.36,2.46,72.73,1.81,85.21,1.33l1.36.41c-16.52,3.21-32.25,8.7-48.12,13.58-32.89,10.11-69.31,14.85-104.41,15.32a401.51,401.51,0,0,1-52.18-2.92c-8.71-1-17.44-2.14-26.08-3.52-9-1.43-18.15-2.19-26.81-4.56,10.23,2.89,19.74,6.73,30.2,9.13a250.32,250.32,0,0,0,29.2,4.78c34.22,3.7,70.81.94,104.09-6.32,17.28-3.77,34.42-8.18,51.12-13.42,14.19-4.45,28.36-9.15,43.17-12,1.3.4,2.6.82,3.88,1.29a31.67,31.67,0,0,0-3.71-1.32q1.87-.36,3.75-.68l.84,0a18,18,0,0,1,2.22-.44,17.72,17.72,0,0,0-2.21.27l1.52-29.76s-171.06,5-300.89-18.71q-5.83-1.07-11.64-1.88a467.52,467.52,0,0,1,62.33-3c49.25.65,98.05,6.82,147.2,8.88,24.74,1,49.61,1,74.24-1.29,11.81-1.11,23.55-2.7,35.13-4.92a191.4,191.4,0,0,0,19.71-4.81,68.57,68.57,0,0,0,15.35-7.17c-3.81.38-7.77.48-11.52,1.08s-7.3,1.76-10.89,2.53c-6.6,1.41-13.14,3-19.78,4.27a375.27,375.27,0,0,1-42.45,5.57c-90,6.83-180.39-12.65-269.89-1.22-8.25-1.14-16.43-1.92-24.44-2.41.77-.27,1.54-.53,2.32-.79,7.44-2.4,15.06-4.48,22.64-6.55q9.12-2.49,18.48-4.34a690.23,690.23,0,0,1,87.91,9.81c35.3,3.78,58.75.22,80.42-5,1.63.28,3.27.51,4.93.67,8.23.79,16.46,1.52,24.71,2.14,16.21,1.22,32.36,1.7,48.64,1.44s33.15-.72,49.25-3.19c8.06-1.24,16.38-2.42,24.24-4.37,5.06-1.26,10-2.89,15-4.59,91.53,25.47,131.62,111.39,131.62,111.39l-113,98.52L2767.19,782l-102.33-48.63c-6.11-1.25-288.67-48.63-398.64-57.36s-148.15-15-158.84-26.19S2160.83,668.56,2333.42,656.09Z"/><path class="cls-46" d="M2508.7,553.65c9.93-3.47,20-6.83,30.06-10q11.7-.3,24.6-.06c-2.52.7-5,1.43-7.53,2.21a198,198,0,0,0-24.63,9.78c-9.15-.49-18.06-.61-26.61-.45Z"/><path class="cls-46" d="M2516.92,544.68q-5.23,2.22-10.37,4.67c-4.15,2-8.3,4-12.36,6.09-41.71,1.85-72.18,9.62-72.18,9.62S2452.89,549.25,2516.92,544.68Z"/><path class="cls-46" d="M2863.47,609c2-.08,3.47-.15,4.49-.2q-1.61.28-3.2.59Z"/><path class="cls-46" d="M2281.49,748.37s-242.85-44.89-362-48.63S1763.72,701,1763.72,701s65.68-28.68,134.41-38.66c-68.73,0-135.93,20-135.93,20s174.12-58.61,268.81-68.59c-154.26,16.21-491.81,124.7-491.81,124.7L1808,807l436.82-37.41Z"/><path class="cls-46" d="M2069.66,640.71q1.16,1.4,2.26,2.82c1.42,1.84,2.81,3.65,4,5.5,5,3.19,5.69,7.57,7.92,11.42,4.21.74,8.34,1.69,12.2,2.67a69.08,69.08,0,0,1,11,4c9-1.48,18.5-2.24,27.39,0a107.19,107.19,0,0,1,17.11,6h.23c37.68-.83,81.46,12.47,127.29,17.46-15.27,2.49-46.84,5-46.84,5s67.21-1.66,126.27,7.48a246.71,246.71,0,0,1,29.49,6.73c4.13.23,8.26.57,12.36,1.07,7.34.91,14.47,2.59,21.78,3.6,1.7.23,3.4.43,5.1.67l.47.08.44,0q3.51.24,7,.53a62.43,62.43,0,0,1,19.46,4.42c7.14,3,13.3,7.63,19.3,11.89a167.82,167.82,0,0,0,17,11c7.69,4.3,16.49,7.89,23.33,13.07q3.07,2.32,5.93,4.76c25.56,1.26,113.56,2.37,268.06-28-205.69-59-427.68-48.22-427.68-48.22s2-7.48,59.06-11.64c-40.73-4.16-86.55-5-135.43-3.33s-97.76-10.81-134.41-15.8-25.46-12.47-25.46-20.78,31.57-19.12,59.06-28.27,49.9-13.3,67.21-16.63c9.1-1.75,15.67-7.18,19.86-11.92q-4.25.44-8.51.84-14,1.32-28.09,2.29c-8.79.62-17.6,1.16-26.4,1.68-3.35,1.95-6.83,3.73-10.49,5.41-7.46,3.44-14.79,7.27-22.91,9.63-4.79,1.39-10,1.23-15,1.6s-9,1.32-13.42.71c-7.91.34-15.41,4.57-22.1,7.6-6.93,3.13-13.49,6-21.21,7.57-6.24,1.27-13.83,2.62-18,7-4.46,4.76-7.42,9.39-13.69,12.89-.42.23-.86.44-1.28.66A35.27,35.27,0,0,1,2069.66,640.71Z"/><path class="cls-15" d="M1898.29,627.39c34.23-7,72.35-14.05,112-20,138.49-20.78,223,2.49,288.17-12.47s110-23.28,110-23.28-21.38-1.66-64.15,6.65c116.08-44.9,205.69-39.91,278-37.41,34.23,1.18,66.18-6,90.33-13.94-21.52,3.34-43.05,6.67-64.79,8.11-59.73,3.93-120.27-6.5-179.53.73-45.21,5.52-87.58,21.07-131.81,30.5a621.27,621.27,0,0,1-66,10.07q-4.25.44-8.51.84-14,1.32-28.09,2.29c-8.79.62-17.6,1.16-26.4,1.68-34.45,2-69,3.5-103.26,6.87C2034,594.93,1965.67,609.69,1898.29,627.39Z"/><path class="cls-47" d="M2889.38,683.52c-29.53-7.18-59.53-29.74-90.15-33.69-22.28-2.88-45.07,9.61-67.13,8.81-20.77-.75-34-10.25-55.78-5.67-13.19,2.78-28.7,10.34-41.24,11.85-15.06,1.82-35.45-2.45-50.78-3.75-22.23-1.89-39,7.58-61.37,8.72-21.84,1.12-36.55-5.71-58.49-2.15-10.23,1.66-21.18,2.77-31.7,5-26.13,5.42-51.48-9.76-70.13,11.91,132.5,11.6,253.17,54,381.58,81.22,47.46,10.06,143.36,10.77,149.83-42.11C2895.16,714.3,2897.11,696.22,2889.38,683.52Z"/><path class="cls-47" d="M1540.14,756.57c1.57,7.1,6.79,12.25,13.94,16,40.56.82,81.5-.75,121.92-1.71,98.71-2.36,197.6-2.18,296.27-5.29,51.91-1.63,100.38,1.47,152.15,3.83,43.67,2,87.3,3.09,130.93,5.94,31.6,2.06,62.89,8.36,94.56,9.29,47.27,1.41,100.85,0,146.36-10.73,13.1-3.08,29.42-7.86,38.72-15.85,4.6-4,4.61-9.68,16.84-18.39-32.74-13.65-61.68-28-97.65-36-19.23-4.27-39-4.52-58.21-8.64-13.47-2.88-26.37-8.51-39.63-11.27-15.6-3.25-36.13-2.43-52.2-4.06-18.35-1.85-38.92-6.53-57.4-4.92,11.21,1.17,24.29,6.5,36.65,8.45,8.29,1.31,11.21.94,18.81,4.06,5.51,2.26,10.26,7.23,16.59,8.7,6.86,1.59,12.24-.23,19.67,2.22,5.77,1.91,7.21,6.39,12.89,9,9.14,4.27,12.62,1.27,17.2,8.67,3.1,5,4.05,16.31,6.32,22.07-5.19-2.89-8.13-1.36-13.87-1.46-21-.37-42.21-1.21-63.38-3-9.91-.86-17.49-.47-26.93-3.82-4.15-1.47-6.06-5.35-9.73-6.32-8.5-2.23-19.76,1.89-28.43.12-11.59-2.36-18.36-12.33-30.53-15.08-9.95-2.24-23,.52-33.33-.22-11.72-.85-21.28-4.34-32.39-6.63-18.78-3.88-37.53,4.24-55.52,2-9.2-1.13-21.54-9.52-32.14-11.4-16.62-2.94-34,4-51,2.35-11-20.35-64.69-12.91-83-6.42-20.7,7.33-25.52,11.1-49.3,9.71-24.35-1.42-47.81,3.91-72,4.46,2.76-7.08-29.8-15.26-38.54-12.75-.21-9.2-7.39-5.69-14-8.54a89.23,89.23,0,0,1-10.45-5.8l-143.81,42C1563.62,724,1535.85,737,1540.14,756.57Z"/><path class="cls-48" d="M2130.08,665c67.21,10,317.7,30.49,407.31,75.38s274.25,0,274.25,0-209.33-34.32-391-54.31c-181.25-20-334-18.85-307.52-50.44,24.27-29,120.41-31.38,148.81-58.47q-14,1.32-28.09,2.29c-14.67,6.23-40.74,14.34-86.1,24.59C2045.9,629.57,2062.87,655.06,2130.08,665Z"/><path class="cls-49" d="M875,639c-.2,6.33,1.2,10.17,9.08,11.77,2.86.58,6.82-.76,9.46.14,3.22,1.09,2.08,2.71,4.88,4.44,8.3,5.13,5.6,1.08,12.64-.49,3.6-.8,6.6,5,8.35-1.23,3.57,3.9,7.29.58,4.72-2.72,11.13-4,18.68-10.82,17.29-20.59,3.36-.55,8.4-.18,9.73-3.12,1.5-3.32-3.23-4.29-3.19-6.3a3.54,3.54,0,0,1,1.31-2.71,3.47,3.47,0,0,0,1-1.78c.42-2,2.53-3.15,2.33-5.56-.07-.89-3.53-2.21-3.79-4-.45-3,1.42-6.09,1.34-9.22-1.17.25-2.53,0-3.84.33-.76-6.73,6-14.45-6.55-13.85-.63-5.32-.07-9.48-8.17-10,.1-2.65.24-5.91-2.53-7.54-3.61-2.12-9.67-.53-10,3-4.36-7.83-10.54-6.34-15.32-1.74-5.1,4.9-8.6,13.33-6.58,17.7-6.68-.25-11.32,4.44-9.15,9.54-7.53-2.74-18.33-1.16-17.08,7.11-6.62,1.06-14.65,8.62-4.85,11.64C854.87,618.21,863.1,639.14,875,639Z"/><path class="cls-50" d="M903.74,567.74c2.23,0,4.13.47,5,1.65,6.47-1,9,2.4,9,7.43,5,.18,12.64-.47,12.24,5.26,3.59.78,2.58.17,4.09,2.67,5.48-.13,7.57,4.74,5.29,8.13-1.94,2.88-6.52.21-7.17,4.57-6.11-2.72-6.55,1.73-12,1.53,2.3,3.42,5.61,2.6,9.7,3.89,2.82.89,7.52,3,10.49,2.77,1.16,4,2.21,9.13,4.18,12.56a27.26,27.26,0,0,1,4.74,0,3.47,3.47,0,0,0,1-1.78c.42-2,2.53-3.15,2.33-5.56-.07-.89-3.53-2.21-3.79-4-.45-3,1.42-6.09,1.34-9.22-1.17.25-2.53,0-3.84.33-.76-6.73,6-14.45-6.55-13.85-.63-5.32-.07-9.48-8.17-10,.1-2.65.24-5.91-2.53-7.54-3.61-2.12-9.67-.53-10,3C914.7,561.65,908.52,563.14,903.74,567.74Z"/><path class="cls-51" d="M975.27,664.31c2.23,13.51,18.58,11.74,31,16.61,13.23,5.2,20.37,14.18,36.93,12,8.64-1.15,6.35-1.52,15.72,1.35,6.54,2,12.77,2.88,19.86,1.73,10.57-1.71,11.89-8,18.26-13.14,1.25-1,4,.17,5-.95,1.18-1.37-.4-4.47.72-5.6,2.18-2.18,6.38-1.42,8.57-3.58a4.36,4.36,0,0,0,.34-.37c1.16-1.47.33-5.77-1.8-9.8a25,25,0,0,0-1.35-2.23,3.14,3.14,0,0,0,2.86-.39c5.05-3,9.68-16.67-.3-17.07,1.86-6.83-7.49-4.61-5.95-11.8-5.09.84-15.4-6.27-16.24,1.71-.4-4.08-8.22-5.36-12.1-3.88,1.1-4.29,10.51-15.79-.88-15.39.94-3.2-.51-5.87-4.86-6,0-3.66-3.5-14.05-10-6.76.65-4.53-4.4-14.56-10.37-8.53-1.11-5.62-6.25-4.42-10-2.66-2.07,1-1.36,3.7-3.24,4.76-1.14.64-6.33.27-7.57.54.26,1.82.64,7.22-.83,8.65s-4.83-.2-5.89.83c-2.64,2.53-1.86,9.74-8.49,6.69.29,3.16.67,6.94-4.11,6.49-1.48-2.68-5.38-2.6-7.58-.78-5.75-2.7-11.89-1.18-9.83,4.84a32.08,32.08,0,0,0-4.92-.06,7.26,7.26,0,0,0-4.31,1.41c-3.28,3.06,1.05,6.1-.38,8.75-1.54,2.84-7,2.42-8.3,6-1.77,4.94,4.09,8.06,4.89,12.4C973.88,651.82,974.5,659.68,975.27,664.31Z"/><path class="cls-52" d="M988.22,621.49a32.14,32.14,0,0,1,3.68,1.31,67.6,67.6,0,0,1,9.34,4.75c1.76-12.17,16.08-3.89,23.86-5.89a16.71,16.71,0,0,0,2.29,1.88c.93-3.45,1.72-8.34,6.6-8.72a36.56,36.56,0,0,0,2.29-5.12c-6.18-4.05.46-12.21,6.69-12,.08.37.16.75.24,1.12a28.75,28.75,0,0,1,6.42,1.17c8.16-2.76,7.66,6.47,14.6,5.72-.37,1.78.61,4,.25,5.81,1.35.38,2.48,1.21,3.24,1.45-2.12,1.57-5,1.77-8.19,1.41.58,2.18-10.55,14.23-.25,10.66,2.57.72,4.14,1.57,5.15,3.82,1.57-.31,4,.51,5.53.2.15,2.7.11,5.44.11,8.16.1-.19.31-.26.64-.21,1.27,5.73-14.25,4.56-7,11.86,5.5-1.43,17.35-1.17,15.5-8.59,1.23.41,3.6.22,4.72.6-3.35-5.85,5.74-4.82,10.64-4.48-.25.31-.43,1.65-.78,2.28a11.58,11.58,0,0,1,1.66-1.8c5.33,2.46,7,7.26,6.67,12,2.48-2.52,4.88-2.64,5.66.67,7.12,2.36,5.73,6.55,3.6,10.43,5.05-3,9.68-16.67-.3-17.07,1.86-6.83-7.49-4.61-5.95-11.8-5.09.84-15.4-6.27-16.24,1.71-.4-4.08-8.22-5.36-12.1-3.88,1.1-4.29,10.51-15.79-.88-15.39.94-3.2-.51-5.87-4.86-6,0-3.66-3.5-14.05-10-6.76.65-4.53-4.4-14.56-10.37-8.53-1.11-5.62-6.25-4.42-10-2.66-2.07,1-1.36,3.7-3.24,4.76-1.14.64-6.33.27-7.57.54.26,1.82.64,7.22-.83,8.65s-4.83-.2-5.89.83c-2.64,2.53-1.86,9.74-8.49,6.69.29,3.16.67,6.94-4.11,6.49-1.48-2.68-5.38-2.6-7.58-.78-5.75-2.7-11.89-1.18-9.83,4.84A32.08,32.08,0,0,0,988.22,621.49Z"/><path class="cls-53" d="M1096.53,685.55c6.8,1.05-2.75,16.47,7.54,21.38,6.48,3.1,15.86,4.26,23,6.74,3.81,1.33,6.47,2.78,10.81,2.8,3.95,0,7.57-2.54,11-2.52,5.79,0,10.79,6,17.68,5,5-.67,6-3.43,9.8-4.64,5.62-1.77,14.78-.26,17.76-4.78a6.63,6.63,0,0,0,1-3.88c2-5.16,8.12-16.07,5-21.39-1-1.63-4.5-2-6-3.46-2.89-2.76-1.9-3.44-3.87-5.92-1.43-1.81-.72-2.54-2.48-4.34-.82-.83-5.13-2.27-6.47-3.26-1.08-.79.92-3.1-.5-4-2.69-1.77-7.38-1.25-10.09,0,.32-4.76-5.34-10.85-11.56-9.19.11-8.59-8.15-7-14.51-3.13-1.18-6.88-10.77-6.15-14.89-1.53a11.51,11.51,0,0,0-2.1-1.93c-5.57-3.86-9.09,4.14-12.53,6.08-4.29,2.43-9.35-1.53-7.52,6C1096.54,660.75,1094.71,677.94,1096.53,685.55Z"/><path class="cls-50" d="M1139.5,656.4c4.36-3.44,11.57-2.47,12.44,3.18,5.39-1.94,10.84,0,10.61,5.3,9.8-1.82,11.21,9.92,17.23,13.2,7.9-7.62,11.2,3.83,8.91,8.81,14-2.49-1.41,12.21.13,17a8.61,8.61,0,0,0,5.33,5.7,6.63,6.63,0,0,0,1-3.88c2-5.16,8.12-16.07,5-21.39-1-1.63-4.5-2-6-3.46-2.89-2.76-1.9-3.44-3.87-5.92-1.43-1.81-.72-2.54-2.48-4.34-.82-.83-5.13-2.27-6.47-3.26-1.08-.79.92-3.1-.5-4-2.69-1.77-7.38-1.25-10.09,0,.32-4.76-5.34-10.85-11.56-9.19.11-8.59-8.15-7-14.51-3.13-1.18-6.88-10.77-6.15-14.89-1.53a11.51,11.51,0,0,0-2.1-1.93,7.85,7.85,0,0,0-2.6,3.64C1122.75,662,1134.75,649.14,1139.5,656.4Z"/><path class="cls-54" d="M519.28,548.17c1.12.21,1.88.73,3,.9-4.81,3.67-1.8,6.39-.89,9.91.79,3.1.45,6.9,1,11,1.25,9.54,4.57,13.38,17.06,13.75,2.31,11,8.62,4.48,17,6.64,4.76,1.22,5.33,3.58,9.24,3.64a37.33,37.33,0,0,1,5.34-2.41c2.54-.45,6.17.28,8.62.62.65-4.44,3.83-1.31,5.24-2.58,3.55-3.2,2.89-6.71,9.18-7.27.74-.07,4.49,1.73,6,1.92a30.45,30.45,0,0,0,12.21-1.11c8.4-2.43,11.43-7.4,9.06-14.17,8,.12,4.9-9.21,7.72-13.39,3.19-4.74,8.37-4,1.3-9.22,7.17-6.89-9.68-10.22-7.46-10.82,15.45-2.06,3.59-18.45-1-23.94-.28-.34-1.65-.37-2.76-.74a2.61,2.61,0,0,1-1.14-.63c-1.14-1.19-.26-4.14-2-5.43s-4.5-.39-6-1.29c-3.35-2-1.54-.44-4.48-3.37s-4.24-6.91-8.15-9.78c-2.41-1.76-4.37-3.86-8-4.12-4.59-.34-6.28,3.36-9,3.31s-22.92-11.5-20.55,1.15c-6.69,1.8-10.07,1.39-15,5.82-1.47,1.33-3,4-4.15,5.31a5,5,0,0,1-.36.37c-2.57,2.32-2.69,1.57-6.54,3.59-5.37,2.81-12.68,10.07-15.59,15.05-3.15,5.44-1.46,9.44,4.82,12.13C524.61,538.73,518.39,542.36,519.28,548.17Z"/><path class="cls-50" d="M540.74,501.88a8.32,8.32,0,0,1,3.07,3.6,36.93,36.93,0,0,0,5.43-.7c-.79-5.75,6.12-8.81,11.42-4.6,2.08-1.78,5.34-1.61,8.2-.73-.3-9.88,10.48.9,11.59,1.11,2.77.54,12.21-5.78,13,3.44,9.55-9.59,20,14.11,25.68,6.89a2.61,2.61,0,0,1-1.14-.63c-1.14-1.19-.26-4.14-2-5.43s-4.5-.39-6-1.29c-3.35-2-1.54-.44-4.48-3.37s-4.24-6.91-8.15-9.78c-2.41-1.76-4.37-3.86-8-4.12-4.59-.34-6.28,3.36-9,3.31s-22.92-11.5-20.55,1.15c-6.69,1.8-10.07,1.39-15,5.82C543.42,497.9,541.91,500.58,540.74,501.88Z"/><path class="cls-55" d="M429.46,527.32c-.82,5.45,4.76,3.79,7,5.93,2.59,2.45,2.7,6.71,5.36,9.34-8.87,2.66-17.44,17.79-3.38,20.9-.18,8.55-13.11,22.71,9.86,21.15-1,5,3.07,9.11,9.08,10,4.67.67,8.16-3.25,11.5-2.76,4,.59,4.54,4.72,10.53,4.5,4.9-.19,9.62-3.2,12.26-6.35,6.34,3.9,16.71,2.28,18.93-4.52,12.2,4.1,10.49-3,13.71-9.54,1.32-2.69,3.07-2.13,4.14-5.42.79-2.45,0-5.87.12-8.46a3.89,3.89,0,0,0,1.74-1c3.79-3.9-5.31-15.23-4.83-19.69,3.51-.05,5.93-1.88,6.42-4.75,5.64.71,6-3.14,8.77-5.41,1.63-1.31,4.18.21,5.86-2.68,1-1.64-1.23-3.72-.95-5.3.33-1.83,3.4-2.54,3.2-4.14-.33-2.61-3.6-3.14-4.72-5.24-1.32-2.51,2.41-7.48-5.5-5.93.83-3,.16-2.9-2.62-4.15-.48-2.92-6.29-4.72-9.31-4.44a12,12,0,0,0-1.76.29c-3.73.91-5.39,3.4-8.57,5.53-.11-.33-.22-.6-.32-.83-.78-1.89-.95-.79-3-2.57.3-1.8-.6-4-.25-5.79-.77-.16-1.44,0-2.21-.2-.51-5.88,7.32-14.7-5.72-15.34-4.23-5.87.25-12.21-13.2-13.25-6.61,1.28-13.35,5.19-16.44,8.75-1.24,1.43-1.89,2.8-1.71,3.92-10.16-3.35-10.55,8.69-13.64,12.44-4.84,5.88-13.86.71-21.3,1.61-5.26.63-6.6,2.61-10.62,4.69-1.32.68-3.68-.73-5.17.49-3.73,3.06-2.08,5.41-3,9.23C418.14,514.76,414.42,528.11,429.46,527.32Z"/><path class="cls-50" d="M504,527.79c5.08.31,8.32,4.06,8.14,8,5.56-.51,9,4,4.1,6.79,3.26,2.76,3.18,7.34,5,10.73a16.87,16.87,0,0,0,9.07,7.73c3.79-3.9-5.31-15.23-4.83-19.69,3.51-.05,5.93-1.88,6.42-4.75,5.64.71,6-3.14,8.77-5.41,1.63-1.31,4.18.21,5.86-2.68,1-1.64-1.23-3.72-.95-5.3.33-1.83,3.4-2.54,3.2-4.14-.33-2.61-3.6-3.14-4.72-5.24-1.32-2.51,2.41-7.48-5.5-5.93.83-3,.16-2.9-2.62-4.15-.48-2.92-6.29-4.72-9.31-4.44a12,12,0,0,0-1.76.29l.48.19c6.69,2.73,3.47,10.32,4,14.51,1.4-.33,4.69.12,6.29-.35a36,36,0,0,1-.74,6.88c-.43,2.34,4,6-3.95,5.14-2.06,4.63-15.69-1.9-19.81-2.71-.68.77-.42,1-.82,1.85C507.22,524.53,504.92,525.32,504,527.79Z"/><path class="cls-50" d="M478.74,479.74c5.13.19,23.86-4.42,19.43,5.5,7.74-3.07,10.38,11.72-.8,6.5-1.6,5.49-6.34,2.34-11.17,1.49,1.17,5.79-6.9,6.89-5,12.57,2.88-3.11,8-7.23,12.1-2.52,8.3-8.73,11.76,7.25,20.71,2.52a8.3,8.3,0,0,0,2-1.48c-.78-1.89-.95-.79-3-2.57.3-1.8-.6-4-.25-5.79-.77-.16-1.44,0-2.21-.2-.51-5.88,7.32-14.7-5.72-15.34-4.23-5.87.25-12.21-13.2-13.25-6.61,1.28-13.35,5.19-16.44,8.75C477.39,476.12,479,477.18,478.74,479.74Z"/><path class="cls-56" d="M339.29,536.19c.83,2.28,0,4.48,1.52,6.91,1.36,2.23,5.26,3.38,5.93,5.8.42,1.51-1.95,2.48-1.69,4,.64,3.76,1.32,4.09,2.73,7,1.23,2.53,2.78,11.34,5.2,13,4.67,3.18,7.2-1.94,10.85-.33,3.91,1.72-.13,9.13,7.11,6.37,2.78,7.69,8.34,2.79,13.73,2.65,3.3-.08,3.93,5.2,6.69.71,1.9,4.92,7.89,4.46,14.14,2.63,6.87,0,14.58.91,21.16-.57-1.32-4.59,1.34-4.54,5-6.13,1.77-.79,5,1,6.69-.14,2.12-1.49.58-4.14,1.54-5.75,1.24-2.08,3.62-3.81,4.74-6.2,1.83-3.91-1.77-8.73-.78-11.4,1.85-5.06,8.76-7.43,10.28-13.43,1.93-7.64-3-6.76-5.72-11.44-.09-.15-.17-.31-.25-.47-2.62-5.26,3.65-8.67-1.73-13.79,9.1-1.16,9-14.47.93-16.88.3-7.16-14.47-19.91-24.5-19.24-.62-5.8-14-12.61-16.72-4.69-3.07-5.73-10.58-4.27-15.77-4l-1,0c-9.25.41-15.8.29-15,10-11.44-.82-23.2,4.64-23.59,15-.08,2.15,2.5,6.27,1.7,8-1.22,2.66-11.56,5.47-14.06,8.07C330.18,520.37,336.31,528,339.29,536.19Z"/><path class="cls-52" d="M394.2,480a12.51,12.51,0,0,1,5.83,5.51c4-5.45,13.26-4.13,13.79,2.6,4.11-1,9.9-1.38,11.44,2.64,5.88-.25,17.36,10.21,16.33,14.68,11.74-2,1.28,10.22,1.39,13.35-4.44-1.07-8.3.31-12.9,1.53-.46,1.48-1.23,3.29-1.49,4,6.57-2.73,7.43,2.23,11.24,4,.4.18,5.26,1.13,8.53,1.63-.09-.15-.17-.31-.25-.47-2.62-5.26,3.65-8.67-1.73-13.79,9.1-1.16,9-14.47.93-16.88.3-7.16-14.47-19.91-24.5-19.24-.62-5.8-14-12.61-16.72-4.69-3.07-5.73-10.58-4.27-15.77-4l-1,0C392.6,472.88,394.66,475.95,394.2,480Z"/><path class="cls-57" d="M613,585.62c0,2.28-3.24,2.47-3.23,6.06,0,4.74,5.39,7,8.55,10,6.65,6.22,9.86,10.38,20.6,6,2.53,5,14.15,3.12,19.56,3.29-3,5.37,1.34,12.56,7.58,15.17,7,2.93,13.32-.67,20.86-1.87,4-.64,2.75-1.68,6.86-1.41,3,.19,5.65,2.52,9.42,2.7,3.46.17,7.86-1.15,11.57-1.22,8.53-.18,8-1.47,13.63-3.92.49-.22,1-.44,1.61-.67a16.36,16.36,0,0,1,8.59-.69c7,1.47,10.74,8,17.74-.41,3.34-4,1.12-9,9.48-7.08,0-3.84,4.36-5.6,4-9.31s-5.28-4.6-4.78-8.57c9.07,1.39,6.71-6.91,8.05-11.37,1.09-3.62,2.37-5,4.82-8.53,12,6.43,24.44-19.2.34-16.19,3.15-3.47-10.15-15.61-15.67-16.84,1-3.06-.24-4.42-.9-7.08-.49-2-2.36-5.24-2.62-8.72-14.26.19-4.19-12.92-16.1-13.53.76-8.31-6.92-5.09-11.77-8.43-5.25-3.61-2.15-6-9.6-8.17-8.56-2.53-5.75-.55-10.72-7.62-2.74-3.88-9-9.26-14.61-6.39-8.48,2.94-10.9,4.92-14.77,7.32-1.11.69-2.06,2.08-4.15,3.2-4.39,2.36-9.89.77-9.84,7.35-7.2-2.72-12.55,4.14-12.23,9.42-4.33-.51-8.63,1.11-9.82,4.64-4.55-.67-7.27.93-8.61,3.4-2.05,3.8-.8,9.67,2.21,12.57,1.73,1.67,9.16,3.58,11.26,4.17,2.35.67,4.16-.73,6.25-.11,2.53.76,6.81,5.14,8.51,6.77-11.11-3.23-13.46,5.71-16.48,12.77-2.94-6.09-19.71-4.64-20.28,2.3-3.54.46-9.16-.8-12.37,1-5.86,3.24-2.88,7.79-3.85,12.56-.37,1.8-2.1,3.65-2.3,5.33C609.26,578.18,613,581.56,613,585.62Z"/><path class="cls-58" d="M636.92,516.14c.43-.27.88-.54,1.37-.81,8.35-4.62,10.57,1.05,18-.47,9-1.84,12.19-12.68,23.47-9.42,2.39-4.44,8.88-7.25,14.51-7.88,11.77-1.31,12.51,4.84,15.9,11.78,3.87-1,8.48-2,8.32,2.74,3.11.09,6.34,0,9.48.19a33.18,33.18,0,0,1,2,7.74c6.33.41,9.87,5,8.69,10.15-5.44-6.17-15.57-2.25-22.72-4.74-.54,1.21-2.61,2.23-3.23,3.24-4-3.2-17.23-6.07-21.46-3.18,3.54,2.34,8.49,5.85,8.47,9.95,5.67-.73,12.38-1.94,15.57,3.34,5.05-2.22,20.14,2.76,19.53,7.37,7-2.31,8.65,1.51,8.21,6.72,4.81-2.84,7.18-.3,10.17,2.7,4.65,4.67,3.51,6.7.5,11.32-2,3-4.72,13-13,9.26,3.42,7.27,15.18,3.56,6.83,15.41a.71.71,0,0,1-.53-.2c7,11.59-10.72,4.33-14.76,3.85-4.71-.55-9.87,4.16-15.42,3.16-.49,4.21,8.21,6.8,10.45,11.21,1.64,3.25,1.71,7.25,1.13,10.85.49-.22,1-.44,1.61-.67a16.36,16.36,0,0,1,8.59-.69c7,1.47,10.74,8,17.74-.41,3.34-4,1.12-9,9.48-7.08,0-3.84,4.36-5.6,4-9.31s-5.28-4.6-4.78-8.57c9.07,1.39,6.71-6.91,8.05-11.37,1.09-3.62,2.37-5,4.82-8.53,12,6.43,24.44-19.2.34-16.19,3.15-3.47-10.15-15.61-15.67-16.84,1-3.06-.24-4.42-.9-7.08-.49-2-2.36-5.24-2.62-8.72-14.26.19-4.19-12.92-16.1-13.53.76-8.31-6.92-5.09-11.77-8.43-5.25-3.61-2.15-6-9.6-8.17-8.56-2.53-5.75-.55-10.72-7.62-2.74-3.88-9-9.26-14.61-6.39-8.48,2.94-10.9,4.92-14.77,7.32-1.11.69-2.06,2.08-4.15,3.2-4.39,2.36-9.89.77-9.84,7.35-7.2-2.72-12.55,4.14-12.23,9.42-4.33-.51-8.63,1.11-9.82,4.64C641,512.07,638.25,513.66,636.92,516.14Z"/><path class="cls-59" d="M1284.13,735.42c-29.32-18-69.63-32.25-102.47-46.28a561.32,561.32,0,0,0-86.62-28.75c-28.54-7-56.08-9.28-83-19.74-27.21-10.56-53.06-19.48-83.72-20-31.49-.49-53.89-10.15-83.88-15.31-40.25-6.93-75.13,2-115.22.34-31.21-1.32-54.31-8.9-83.46-17.43-38.14-11.16-75.61-9.13-114.61-15.89-18.1-3.14-34-10.11-51.77-13.19-27.68-4.79-58.76-7.43-86.87-9.42-31.54-2.23-63.74.8-95.24,1.09-24.12.23-48.13-1.73-71.6,3.71,1.84,21.2-4.69,40.21-6.76,61.06-2.43,24.42,5.75,45.94,17.85,67.83,26.42,47.82,115.43,26.36,162,54.44,17.95,10.82,28.2,27.88,45,39.75,33.08,23.38,79.52,31.84,122.15,26.3,29.27-3.8,56.31-14.56,85-20.2,22.7-4.46,45.71-6.11,68.91-7.6C779.21,772.36,838.57,768,898,764.71c43.88-2.43,87.9-7.9,131.84-8.18,31.12-.2,59.91,4.89,90.51,8.25,28.7,3.15,57.58,2.31,86.3,5,15.52,1.47,34.65,8,50.39,5.48,27.59-4.49,16.19-21.87,27.27-34.88C1283.48,738.77,1282.37,739.38,1284.13,735.42Z"/><path class="cls-60" d="M210.41,569.57c10.12-8.06,49-2.49,64.22-2.49,20.17,0,39.66-.49,59.62-2.49,24.65-2.48,47.85-4.89,73-3.52,7.56,25.14,54.18,16.58,75.84,22.22,41.81,10.9,87.57,20,130.47,35.23-10.07,2-29.65-3.94-41.25-5.92-16.41-2.81-29-3.64-45.78-4.36s-30.71-5.92-47.6-7.2c-19.83-1.5-42.64,1.76-60.64-2.49,31.07,2.46,59.93,22.78,92.28,25.89,14.86,1.43,27.77-1.82,42.46,0,15.44,1.93,32.84,3.84,48.15,7.79,7.44,1.92,15.63,6.83,23.55,7.26,13.3.73,25.8-5.69,38.8-7.6,15.46-2.27,28.5-3.16,43.73-1.22,8.29,1.05,18.53,5,27.26,2.31,4.3-1.33,7.18-6.71,12-8.54,9.55-3.67,27.44-3.88,37.07-.75,7.68,2.49,8.72,5.45,18,7a100.77,100.77,0,0,0,18.36,1.28c9.58-.3,28.3-4.29,30.28,7.27-15.65.72-20.59,15.28-2.82,17.64,8.06,1.07,16.2-3.75,24.2-4.74,13.87-1.72,22.14,4.62,34.6,4.74,12.11.11,24-5.29,37.33-5,11,.25,22.89.77,33.78,2,16.35,1.82,30.41,5.67,45.67,6.22,14.13.51,26,8,40.39,11,25.77,5.5,50.59,6.29,74.25,17.84,18.85,9.2,31.52,23.11,48.8,32.92-15.85-2.52-28.66-1.35-44.32,2.46-33.66,8.2-67.29,6.48-101.59,11.34-40.39,5.72-77.38,4.34-118.33,2.67-35.3-1.44-69.44,2.44-105-.33-87.77-6.85-175.73-1.29-263.78-6.26-58-3.27-114.53-11.37-171.8-18.77-32.79-4.24-77.38.81-106.53-12.87-28.71-13.48-33-40-47.61-62C213,616.5,210.2,597.86,209.26,575.61a142.35,142.35,0,0,1,22.53,5.18Z"/></g></g><path class="cls-61" d="M1927.86,78.89l-3.44-.14-9.68,251,3.44.13Z"/><path class="cls-61" d="M1937.73,104.55h7.19V302.42h-7.19Z"/><g class="cls-62"><path class="cls-63" d="M1938.68,108.06h1.13V297.81h-1.13Z"/></g><path class="cls-64" d="M1911.12,75.91c0-17.32,13.52-31.37,30.21-31.37s30.21,14,30.21,31.37-13.52,31.37-30.21,31.37S1911.12,93.23,1911.12,75.91Z"/><path class="cls-65" d="M1915.13,78.59c0-15,11.73-27.2,26.2-27.2s26.2,12.18,26.2,27.2-11.76,28.7-26.22,28.7S1915.13,93.62,1915.13,78.59Z"/><path class="cls-66" d="M1922.56,94.21c3.89,7.45,10.75,12.42,18.6,12.42s14.73-5,18.61-12.42a65.71,65.71,0,0,1-37.22,0Z"/><g class="cls-62"><path d="M1932.11,102.64a14,14,0,0,0,19.22,0,56.15,56.15,0,0,1-19.22,0Z"/></g><g class="cls-62"><path d="M1963.92,84.49s-2.1,9-7.53,14.9c-7,7.58-13.59,7.24-13.59,7.24s3-1.33,4.65-5.7c2.41-6.29,1.37-16.38,1.37-16.38Z"/></g><path class="cls-67" d="M1910.94,20.74h60.77V80.91h-60.77Z"/><g class="cls-62"><path class="cls-63" d="M1913.63,24.67h8.14V76.49h-8.14Z"/></g><g class="cls-62"><path d="M1937.75,23.52h32.64V77.29h-32.64Z"/></g><g class="cls-62"><path d="M1950,23.52h20.41V77.29H1950Z"/></g><g class="cls-62"><path d="M1959.48,24.63h9.31V75.7h-9.31Z"/></g><g class="cls-62"><path class="cls-63" d="M1914.81,26.2h1.81V74.59h-1.81Z"/></g><g class="cls-62"><path class="cls-63" d="M1915.42,40.57h47.36v1.53h-47.36Z"/></g><g class="cls-62"><path class="cls-63" d="M1915.42,61.33h47.36v1.53h-47.36Z"/></g><path class="cls-68" d="M1941.33,0l33.62,21.8h-67.24Z"/><path class="cls-61" d="M1907.72,21.79h67.21v1h-67.21Z"/><g class="cls-62"><path class="cls-63" d="M1941.23,1.36,1912,20.75h10.41Z"/></g><g class="cls-62"><path d="M1942,1.37l30,19.85-26.37,0Z"/></g><g class="cls-62"><path d="M1945.38,4.69l23.18,15.75h-10.22Z"/></g><g class="cls-62"><path class="cls-63" d="M1916,19.22l13.21-8.73-8.5,8.79Z"/></g><path class="cls-61" d="M1988.36,214v-1.28h-.15L1972.91,81.14h1.86V78.23h-66.88v2.91h1.42l-28.93,248.07,3.42.4L1897.06,216h52.51l4.63,114.81,3.44-.13L1953,216h32.11l13.38,115.07,3.42-.4ZM1912.78,81.14h31.34l2.36,58.63h-40.54Zm-15.35,131.61,8.13-69.73h41.05l2.81,69.73Zm50.14-131.61h21.86l6.82,58.63h-26.32Zm5.3,131.61L1950.07,143h26.56l8.11,69.73Z"/><path class="cls-14" d="M1884.88,317s-16,2-14,10,0,15.1,71.5,13.55,90.5-13.55,65.5-23.55S1890.88,316,1884.88,317Z"/></g></g></g></svg>