<svg xmlns="http://www.w3.org/2000/svg" xmlns:xlink="http://www.w3.org/1999/xlink" viewBox="0 0 843.27 2427.81"><defs><style>.cls-1{fill:none;}.cls-2{clip-path:url(#clip-path);}.cls-3{fill:#ab7320;}.cls-4{fill:#36516b;}</style><clipPath id="clip-path" transform="translate(-107.23)"><rect class="cls-1" y="926.15" width="976.29" height="874"/></clipPath></defs><title>map</title><g id="Layer_2" data-name="Layer 2"><g id="Layer_1-2" data-name="Layer 1"><g class="cls-2"><path class="cls-3" d="M730.24,1485c6.37,23-51.3-16.43-49-79.71s14.3-73.23,8.69-170.45c-5.87-101.59,59-102.84,73-107.52s32.81,2.34,25.78,46.87-4.69,131.25-9.37,165.18-9.37,66.85-39.84,71.53,18.75,42.19,14.06,82-25.78,28.13-68,117.19-93.75,243.74-93.75,314.05-14.06,14.06-9.37,98.43-21.09,39.84-32.17,131.25S528.64,2257,516.92,2306.19s-25.78,93.75-44.53,110.16-42.19,0-35.16-39.84-7-30.47-18.75-100.78S331.77,2013.22,317.71,1957s-53.91-9.37-44.53-60.93-7-44.53-14.06-56.25-4.69-49.22-7-84.37S191.15,1624.17,163,1525.74s-49.22-138.28-49.22-138.28c264.84-199.22,318.74-607,332.8-675s-2.34-89.06,21.1-103.12,11.72-72.65,11.72-72.65,30.47,14.06,46.87,0,7-37.5,18.75-77.34,0-68,0-68L601.3,382c56.25-9.37,49.22,11.72,65.62,23.44S692.7,391.4,720.82,382s30.47,11.72,32.81-42.19,23.44-77.34,23.44-77.34c-2.34,21.1,25.78,28.13,25.78,28.13,7-23.44,30.47-35.16,30.47-35.16C906,208.59,950.51,0,950.51,0c-50.29,177.56-56.25,309.36-56.25,309.36S934.1,424.21,920,487.49s-79.69,112.5-119.53,150S788.79,735.92,773.17,839,763,982,770,1028.88s0,65.62,0,65.62S675.53,1287.69,730.24,1485" transform="translate(-107.23)"/><path class="cls-4" d="M778,1127.76s-33.62-1.46-51.06,11.62-33,30.83-37.24,77.56,12.14,24.66-4.2,140.35,24,156,64.33,116.78c0,0-34.63-67.48-10.23-63.17,0,0,43.18-1,42.51-111.19s20.78-159.58-4.11-171.94" transform="translate(-107.23)"/><path d="M950.51,0c-4.94,23.3-10.87,46.4-17.43,69.32s-13.94,45.61-22.38,67.94-18.05,44.27-29.82,65.17A240.86,240.86,0,0,1,861,232.5c-7.49,9.44-16,18.33-26.27,25.17l-.06,0-.19.1a65.08,65.08,0,0,0-9.41,6.36,68,68,0,0,0-8.29,7.88,51.17,51.17,0,0,0-11,19.43l-.83,2.82-2.81-.75a54.26,54.26,0,0,1-10.36-4,42.52,42.52,0,0,1-9.32-6.22,27.08,27.08,0,0,1-7-9.42,23.89,23.89,0,0,1-1.74-11.84l5.86,2.63a58.58,58.58,0,0,0-5.5,8.33c-1.71,3-3.17,6.12-4.59,9.27a129.94,129.94,0,0,0-6.6,19.76c-3.53,13.54-4.9,27.44-5.35,41.62-.3,7.18-.56,14.33-1.41,21.73-.23,1.85-.51,3.74-.93,5.69a21.83,21.83,0,0,1-2.27,6.28,11.06,11.06,0,0,1-2.8,3.25,11.36,11.36,0,0,1-3.9,1.94,29.93,29.93,0,0,1-6.3.78,67.45,67.45,0,0,0-10.06,1,53.79,53.79,0,0,0-9.49,2.7,69.57,69.57,0,0,0-17.37,10c-2.74,2.07-5.42,4.3-8.23,6.59a70.52,70.52,0,0,1-9.34,6.75,24.16,24.16,0,0,1-6.22,2.57,17.15,17.15,0,0,1-7.51.16,20.35,20.35,0,0,1-6.57-2.75,31.94,31.94,0,0,1-5-3.91,61.17,61.17,0,0,1-7.45-8.92,36.29,36.29,0,0,0-6.2-7c-4.28-3.59-10.36-5-17-5.41-13.3-.73-27.19,2.15-41.35,4.4l-42.29,7,3.93-7.1a58.52,58.52,0,0,1,2.11,6.58c.58,2.13,1.06,4.28,1.47,6.42a111.41,111.41,0,0,1,1.7,12.95,125.49,125.49,0,0,1-.91,25.92c-.55,4.29-1.43,8.52-2.38,12.73l-3.24,12.11a170.89,170.89,0,0,0-4.31,23.78c-1,8.08-1.29,16.25-2.41,24.9a56.37,56.37,0,0,1-3.24,13.31,32,32,0,0,1-8.4,12A30.4,30.4,0,0,1,517.05,547a45.85,45.85,0,0,1-14,1,71.75,71.75,0,0,1-13.21-2.23,84.89,84.89,0,0,1-12.62-4.35l7.25-5.72a182.75,182.75,0,0,1,3,30.67c0,10.3-.63,20.86-4.54,31.33a33,33,0,0,1-10,14.34c-2.86,2.1-4.39,2.8-6,4.19a18.49,18.49,0,0,0-3.92,4.32c-2.07,3.17-3.09,7.28-3.58,11.9s-.61,9.51-.75,14.46c-.22,9.94-.55,20.1-1.5,30.17s-2.36,20.13-4.2,30.07c-4,19.52-7.2,39.11-11,58.75-14.83,78.47-34.45,156.22-61.09,231.67s-60.11,148.69-103.24,216.32a750,750,0,0,1-72.35,96,613.28,613.28,0,0,1-88.35,81.71l1.46-6.56c3.67,7.26,6.69,14.28,9.73,21.5s5.84,14.41,8.59,21.67q8.19,21.79,15.36,43.89c4.77,14.73,9.38,29.51,13.65,44.38,2.21,7.46,4.24,14.77,6.58,22.06s4.75,14.54,7.27,21.77c10.25,28.87,22.28,57.15,34.87,85.24l19,42.17c6.29,14.13,12.59,28.29,17.85,43.15,2.55,7.48,5,15,5.86,23.69.57,7.9.84,15.6,1.06,23.36.5,15.44.37,31,2,45.75a58.51,58.51,0,0,0,2,10.35,14,14,0,0,0,1.77,3.8,15.64,15.64,0,0,0,3,3.05c1.33,1.06,3,2.2,4.72,3.7a25,25,0,0,1,4.79,5.46,30.83,30.83,0,0,1,4.23,13.11c.93,8.56,0,16.51-1,24.38-.54,3.86-1.26,7.93-1.89,11.53a64.14,64.14,0,0,0-1,10.59c0,3.35.76,6.25,1.89,7.27,1,1.18,4,2,7.74,2.59a58.94,58.94,0,0,1,12.26,3,31.59,31.59,0,0,1,11.38,7.63c6.27,6.7,9.42,14.77,11.69,22.55l1.52,5.69c.47,1.83,1,3.65,1.5,5.48,1,3.66,2.14,7.32,3.24,11,9.12,29.28,19.36,58.39,29.42,87.53s20.25,58.29,30.06,87.57,19.37,58.68,27.57,88.64q3.08,11.23,5.67,22.67c.84,3.82,1.65,7.66,2.33,11.56s1.29,7.56,2,11.33a270.14,270.14,0,0,0,11.67,43.86c1.28,3.58,2.67,7.17,4,11a64.3,64.3,0,0,1,3,12.19c1.08,8.57.07,16.76-1.21,24.54a90.77,90.77,0,0,0-1.36,10.91,57.41,57.41,0,0,0,.33,10.58c.85,6.82,3.4,13.46,7.83,17.21s10.24,4,15.63.88a29.84,29.84,0,0,0,7.48-6.37,66.45,66.45,0,0,0,6.36-8.61c7.73-12.44,13.18-26.77,18-41.14s8.82-29.23,12.53-44.11c1.85-7.4,3.58-15,5.61-22.53s4.18-15,6.4-22.4c4.49-14.8,8.78-29.36,12-44.28s5.88-30,8.11-45.15l1.62-11.39,1.46-11.43c1-7.59,1.95-15.46,3.35-23.17a180.58,180.58,0,0,1,5.54-23.14,93.62,93.62,0,0,1,10.12-22.17c2.15-3.44,4.44-6.59,6.32-9.64a43.48,43.48,0,0,0,4.48-9.33c2.16-6.55,2.93-13.92,3.29-21.36.69-14.94-.88-30.22-1.22-45.88a195.35,195.35,0,0,1,.51-23.8,51.16,51.16,0,0,1,1-6.35,27.12,27.12,0,0,1,2.43-6.6c1.11-2.08,2-3.44,2.58-4.81a24.14,24.14,0,0,0,1.45-4.57,75.66,75.66,0,0,0,1.48-10.7c.31-3.7.46-7.48.57-11.27s.11-7.58.15-11.44l.13-6,.34-5.92a377.51,377.51,0,0,1,6.62-46.43c3-15.26,6.65-30.36,10.59-45.36,7.91-30,17.13-59.56,27.2-88.83s21.06-58.22,33.09-86.77,24.95-56.89,41.81-83.41c4.22-6.61,8.74-13.07,13.54-19.31s10-12.2,14.78-18,8.74-11.49,10.85-18.1a62.32,62.32,0,0,0,2.39-10.38l.37-2.71c.09-.87.19-1.7.22-2.56a41.08,41.08,0,0,0,0-5.17,66.94,66.94,0,0,0-5.11-20.76,207.24,207.24,0,0,0-9.87-20.28c-1.81-3.41-3.66-6.85-5.39-10.54a59.47,59.47,0,0,1-2.41-5.86,25.47,25.47,0,0,1-1.5-7.1,14.13,14.13,0,0,1,.5-4.5,11.89,11.89,0,0,1,2.4-4.49,15.35,15.35,0,0,1,7.31-4.47,27,27,0,0,1,3.45-.82l2.69-.5a36.42,36.42,0,0,0,4.81-1.36,29.91,29.91,0,0,0,14.92-12.47c3.7-5.79,6.13-12.7,8-19.85a219.22,219.22,0,0,0,4.2-22.18l1.59-11.38c.44-3.7.86-7.42,1.12-11.22,1.22-15.14,1.67-30.56,2.28-45.94s1.06-30.83,1.78-46.28,1.61-30.93,3.31-46.43c.69-7.74,2.3-15.64,3.06-22.89s.83-14.86-.77-21.66a23.62,23.62,0,0,0-4.07-8.94,13,13,0,0,0-7.46-4.72,18.15,18.15,0,0,0-9.52.7c-4.24,1.22-7.83,1.76-11.56,2.66a89,89,0,0,0-21,7.29,62.53,62.53,0,0,0-17.54,13.1c-10.14,10.71-16.07,25-18.95,39.72a152.64,152.64,0,0,0-2.59,22.53c-.29,7.62-.07,15.17.28,22.91,1.4,30.85,1.63,62-2.16,92.73-1.83,15.37-4.41,30.57-6,45.86-.41,3.82-.78,7.65-1.06,11.48s-.57,7.67-.78,11.51a167.42,167.42,0,0,0-.11,23c1.06,15.24,4.36,30.59,11.65,44.12,3.68,6.68,8.39,13,14.78,17.31a21,21,0,0,0,10.69,3.77,15.27,15.27,0,0,0,10.59-3.8,15.39,15.39,0,0,1-10.59,4,21.3,21.3,0,0,1-10.93-3.62c-6.57-4.23-11.46-10.56-15.32-17.25-7.65-13.56-11.3-29-12.67-44.43-2-31,2.84-61.86,6.3-92.37,3.29-30.56,2.59-61.38.72-92.08l-.58-11.62c-.16-3.9-.11-7.81-.07-11.72a157.64,157.64,0,0,1,2.33-23.42c2.77-15.44,8.8-30.95,19.8-43a69.1,69.1,0,0,1,19.1-14.74,95.81,95.81,0,0,1,22.45-8.21c3.76-1,7.8-1.69,10.95-2.67a25.49,25.49,0,0,1,13.28-1.09,20.58,20.58,0,0,1,11.84,7.17,31.1,31.1,0,0,1,5.72,11.82c2.07,8.23,2,16.41,1.35,24.34-.74,8.1-2.14,15.37-2.69,23-1.42,15.18-2,30.54-2.52,45.91s-.7,30.77-1,46.21-.61,30.88-1.79,46.5c-.27,3.89-.71,7.84-1.19,11.8l-1.64,11.52a229.14,229.14,0,0,1-4.52,23.24c-2,7.74-4.76,15.58-9.38,22.83a40.35,40.35,0,0,1-20,16.58,46.43,46.43,0,0,1-6.31,1.79l-3,.56a16.26,16.26,0,0,0-2.18.51,5.44,5.44,0,0,0-2.51,1.33c-.24.31-.43.63-.41,1.8.1,2.31,1.43,5.78,2.94,9s3.34,6.65,5.15,10.05a217.18,217.18,0,0,1,10.35,21.3,77.21,77.21,0,0,1,5.84,24,56.63,56.63,0,0,1-.67,12.6,72.74,72.74,0,0,1-2.81,12.13,54.43,54.43,0,0,1-5.41,11.54,94,94,0,0,1-7.26,9.85c-5,6.07-10,11.74-14.59,17.75s-8.94,12.18-13,18.56c-16.28,25.6-28.94,53.64-41,81.86s-22.81,57.06-32.84,86.12-19.15,58.42-27,88.09c-3.9,14.83-7.45,29.75-10.45,44.74a367.94,367.94,0,0,0-6.45,45.11l-.32,5.63-.12,5.6c0,3.85,0,7.78-.16,11.69s-.27,7.85-.6,11.83a85,85,0,0,1-1.71,12.19,34.33,34.33,0,0,1-2.08,6.43c-.95,2.18-2.18,4.06-2.86,5.39-1.39,2.52-2,5.67-2.35,9.28a186,186,0,0,0-.46,22.42c.17,7.64.63,15.21,1,23s.56,15.64.22,23.59-1.15,16.07-3.82,24.21a53.77,53.77,0,0,1-5.5,11.48c-2.18,3.51-4.43,6.61-6.36,9.7-7.8,12.18-11.53,26.77-14.24,41.63s-4,30.33-6.37,45.65c-2.26,15.34-4.87,30.67-8.25,45.9s-7.74,30.29-12.2,45c-2.21,7.38-4.38,14.7-6.31,22.08s-3.68,14.8-5.57,22.37c-3.75,15-7.83,30-12.75,44.88s-10.54,29.57-19.1,43.39a76.41,76.41,0,0,1-7.38,10,40,40,0,0,1-10.1,8.5,25.42,25.42,0,0,1-13.87,3.53,22.66,22.66,0,0,1-13.6-5.53,30.88,30.88,0,0,1-8.05-11.21,47.31,47.31,0,0,1-3.33-12.54,79.67,79.67,0,0,1,1.09-24.54c1.24-7.39,2-14.71,1.15-21.49s-3.75-13.61-6.4-21a280.87,280.87,0,0,1-12.1-45.46c-.75-3.8-1.35-7.76-2.05-11.44s-1.43-7.41-2.24-11.11q-2.52-11.12-5.56-22.21c-8.08-29.56-17.65-58.85-27.39-88.06s-19.91-58.33-30-87.47-20.31-58.26-29.53-87.88c-1.12-3.72-2.26-7.44-3.31-11.21-.55-1.87-1.06-3.77-1.55-5.68l-1.46-5.48c-2-6.94-4.83-13.62-9.22-18.22a21.05,21.05,0,0,0-7.68-5.15,49.41,49.41,0,0,0-10.2-2.4,46.55,46.55,0,0,1-6.35-1.41,16.67,16.67,0,0,1-7.11-4.2,16.16,16.16,0,0,1-3.95-7.36,29.66,29.66,0,0,1-.85-6.94,73.35,73.35,0,0,1,1.11-12.42c.69-4,1.32-7.52,1.85-11.3,1-7.38,1.72-14.92.95-21.73a20.84,20.84,0,0,0-2.68-8.76c-1.42-2.33-3.74-4-7.22-6.62a25.83,25.83,0,0,1-5-5.17,24.2,24.2,0,0,1-3.18-6.61,68.29,68.29,0,0,1-2.44-12.31c-1.7-15.92-1.51-31.3-2-46.67-.22-7.65-.49-15.36-1-22.85-.62-6.73-2.86-14-5.31-21.08-5-14.22-11.27-28.29-17.53-42.32l-19-42.17c-12.63-28.2-24.79-56.73-35.17-86-2.56-7.33-5.08-14.68-7.39-22.11s-4.48-14.95-6.65-22.27c-4.25-14.78-8.83-29.45-13.56-44.06s-9.81-29.1-15.2-43.44c-2.72-7.17-5.5-14.3-8.46-21.34s-6-14.14-9.33-20.65l-2-4,3.46-2.61c63.18-47.52,115.65-108.35,158.19-175s75.83-139.39,102.2-214.19S417,842,431.78,764c3.76-19.48,7-39.21,11-58.73,1.78-9.64,3.2-19.34,4.06-29.09s1.24-19.53,1.46-29.5c.15-5,.23-10.05.82-15.37s1.79-11.13,5.18-16.37a28.85,28.85,0,0,1,6.06-6.71c2.18-1.82,5.09-3.44,6.22-4.33,2.94-2.28,5.19-5.86,6.76-9.93,3.13-8.25,3.91-17.95,3.85-27.49a173.3,173.3,0,0,0-2.82-28.73l-1.75-9.58,9,3.86a71,71,0,0,0,22.2,5.66c7.48.55,14.75-.82,19.51-5.23a21.47,21.47,0,0,0,5.7-8.2,46.7,46.7,0,0,0,2.58-10.84c1-7.82,1.39-16.26,2.38-24.67a181,181,0,0,1,4.57-25.18l3.2-11.94c.87-3.89,1.69-7.79,2.19-11.73a115.19,115.19,0,0,0,.84-23.75,101.87,101.87,0,0,0-1.54-11.73c-.37-1.92-.8-3.84-1.3-5.71a51.12,51.12,0,0,0-1.67-5.28l-2.37-6,6.3-1.06,42.27-7.11c14-2.24,28.34-5.46,43.71-4.66a52.57,52.57,0,0,1,11.76,1.94,32,32,0,0,1,11.25,6,46.19,46.19,0,0,1,7.92,9,55.18,55.18,0,0,0,6.13,7.62c2.16,2.11,4.6,3.76,6.59,4.21s4.12,0,6.77-1.51c5.26-3,10.72-8.06,16.7-12.36a79,79,0,0,1,19.86-11,62.83,62.83,0,0,1,11.15-3,76.38,76.38,0,0,1,11.27-.93,24.05,24.05,0,0,0,4.34-.38c.88-.33,1-.3,1.55-1.17a13.82,13.82,0,0,0,1.35-3.76c.35-1.53.64-3.18.87-4.87.9-6.78,1.3-13.93,1.71-21,.69-14.36,2.37-29,6.3-43.13A137,137,0,0,1,763,279.48c1.56-3.34,3.18-6.66,5.08-9.85a63.48,63.48,0,0,1,6.49-9.4l7.08-8.36-1.23,11a17.19,17.19,0,0,0,1.1,8.54,20.66,20.66,0,0,0,5.23,7.24,36.34,36.34,0,0,0,7.86,5.41,48.8,48.8,0,0,0,9,3.62L800,289.75a57.06,57.06,0,0,1,12.65-21.48,73.49,73.49,0,0,1,9.11-8.37,69.47,69.47,0,0,1,10.44-6.78l-.25.14c9.7-6.2,18.05-14.61,25.48-23.67a236.47,236.47,0,0,0,20-29.19c12-20.43,21.81-42.13,30.69-64.17s16.63-44.58,23.68-67.31S945.1,23.2,950.51,0" transform="translate(-107.23)"/><path d="M770,1094.5a66.09,66.09,0,0,0,1.65-13c.21-4.35.15-8.71-.07-13.05a228.06,228.06,0,0,0-2.72-25.91c-1.34-8.56-3.12-17.08-4.75-25.77s-3.18-17.36-4.35-26.16c-3.5-35.38-1.69-71,2.14-106,.92-8.77,2.07-17.49,3.2-26.22l3.71-26A463.48,463.48,0,0,0,773,780.59c.52-17.36.09-34.76-.26-52.32s-.78-35.38,2.57-53.5c1.78-9,4.68-18.1,9.65-26.22a68.7,68.7,0,0,1,8.52-11.35c3.34-3.51,6.55-6.34,9.8-9.36,13-11.91,26.19-23.36,38.85-35.31A423.79,423.79,0,0,0,878,555c11-13.24,20.76-27.42,27.91-42.78a127.93,127.93,0,0,0,8.44-23.76,41.18,41.18,0,0,0,1.24-6.15l1-6.2a54.49,54.49,0,0,0,.59-6.31l.43-6.35c.68-17-1.1-34.28-3.51-51.39-1.75-17.24-4.58-34.46-8-51.6-1.71-8.57-3.53-17.12-5.54-25.64s-4.07-17-6.4-25.5a579,579,0,0,1,30.14,101.22c.38,2.19.81,4.36,1.1,6.56s.45,4.42.68,6.63c.39,4.43,1,8.82,1.22,13.29a243.85,243.85,0,0,1,.61,26.85l-.46,6.77a59.81,59.81,0,0,1-.63,6.77l-1.1,6.77a47.46,47.46,0,0,1-1.36,6.71,138.19,138.19,0,0,1-9.12,25.68c-7.66,16.44-18,31.32-29.33,45a433.55,433.55,0,0,1-36.74,38.43c-12.83,12.1-26.11,23.64-39,35.4-3.17,2.94-6.52,5.93-9.21,8.78a58.39,58.39,0,0,0-7.23,9.63c-4.21,6.85-6.74,14.71-8.37,22.86-3.07,16.43-2.65,33.9-2.38,51.33s.78,35.13.26,52.8a474.15,474.15,0,0,1-4.25,52.93l-3.71,26c-1.12,8.65-2.26,17.29-3.17,26-3.75,34.62-5.62,69.42-2.05,103.85q.71,13,2,26c.8,8.66,1.92,17.43,2.36,26.31a231.6,231.6,0,0,1,.08,26.55c-.28,4.42-.73,8.82-1.45,13.18A67,67,0,0,1,770,1094.5" transform="translate(-107.23)"/><path d="M424.63,1618.31a170.68,170.68,0,0,0,21.3-18.59,78.28,78.28,0,0,0,8.89-10.88c1.44-1.94,2.12-4,3.66-6.14a4.68,4.68,0,0,1,3.46-2,6.84,6.84,0,0,1,3.78,1,29.34,29.34,0,0,1,5.77,4.44c1.75,1.63,3.41,3.33,5.06,5,3.29,3.39,6.5,6.84,9.88,10.08a68.64,68.64,0,0,0,10.82,8.86,30.75,30.75,0,0,0,13,5v.19a28,28,0,0,1-7.06-1.11,37.81,37.81,0,0,1-6.58-2.9,64.85,64.85,0,0,1-11.45-8.6c-3.5-3.24-6.75-6.7-9.95-10.17s-6.35-7.08-10.18-9.42c-1.91-1.2-4.11-1.3-5.4.53-1.25,1.64-2.27,4.12-3.7,6a79.77,79.77,0,0,1-9.24,10.86,171.27,171.27,0,0,1-21.88,18.07Z" transform="translate(-107.23)"/><path d="M356.4,1642.38a213.75,213.75,0,0,0,26.68-23.15,98.25,98.25,0,0,0,11.14-13.59c1.8-2.41,2.69-5,4.58-7.65a5.66,5.66,0,0,1,4.2-2.42,8.35,8.35,0,0,1,4.61,1.22,36.37,36.37,0,0,1,7.16,5.53c2.17,2,4.24,4.16,6.3,6.29,4.1,4.25,8.11,8.56,12.36,12.6a85.68,85.68,0,0,0,13.59,11,38.15,38.15,0,0,0,16.27,6.09v.19a35,35,0,0,1-8.79-1.46,47.54,47.54,0,0,1-8.17-3.66,81.69,81.69,0,0,1-14.22-10.78c-4.36-4-8.41-8.37-12.42-12.7-2-2.15-4-4.3-6.1-6.35a34.73,34.73,0,0,0-6.69-5.42,6.93,6.93,0,0,0-3.78-1.12,4.23,4.23,0,0,0-3.21,1.83c-1.59,2.11-2.83,5.15-4.62,7.46a99.39,99.39,0,0,1-11.5,13.57,214,214,0,0,1-27.26,22.63Z" transform="translate(-107.23)"/><path d="M488.15,1603.09a144.94,144.94,0,0,0,18.07-15.84,66.81,66.81,0,0,0,7.53-9.25c1.22-1.65,1.78-3.34,3.1-5.24a4.11,4.11,0,0,1,3-1.75,6,6,0,0,1,3.28.85c3.72,2.15,6.39,5.23,9.26,8s5.53,5.81,8.4,8.57A59.18,59.18,0,0,0,550,1596a26.39,26.39,0,0,0,11,4.31v.19a23.92,23.92,0,0,1-6-.89,32.52,32.52,0,0,1-5.62-2.44,55.1,55.1,0,0,1-9.79-7.3c-3-2.76-5.75-5.7-8.46-8.66s-5.39-6-8.61-8c-1.62-1-3.38-1.1-4.46.41-1,1.35-1.93,3.49-3.15,5a67.8,67.8,0,0,1-7.89,9.23,145.94,145.94,0,0,1-18.65,15.32Z" transform="translate(-107.23)"/></g></g></g></svg>