<svg xmlns="http://www.w3.org/2000/svg" xmlns:xlink="http://www.w3.org/1999/xlink" viewBox="0 0 843.27 2427.81"><defs><style>.cls-1{fill:none;}.cls-2{clip-path:url(#clip-path);}.cls-3{fill:#ab7320;}.cls-4{fill:#36516b;}</style><clipPath id="clip-path" transform="translate(-107.23 926.15)"><rect class="cls-1" width="976.29" height="874"/></clipPath></defs><g id="Layer_2" data-name="Layer 2"><g id="Layer_1-2" data-name="Layer 1"><g class="cls-2"><path class="cls-3" d="M730.24,558.85c6.37,23-51.3-16.44-49-79.71s14.3-73.24,8.68-170.45c-5.86-101.59,59-102.84,73-107.52s32.81,2.34,25.78,46.87-4.69,131.24-9.37,165.18-9.38,66.85-39.85,71.53,18.75,42.19,14.07,82-25.78,28.12-68,117.18S591.92,927.71,591.92,998s-14.06,14.06-9.37,98.43-21.09,39.85-32.17,131.25S528.64,1330.82,516.92,1380s-25.78,93.75-44.52,110.15-42.19,0-35.16-39.84-7-30.47-18.75-100.78-86.72-262.49-100.78-318.74-53.9-9.37-44.53-60.93-7-44.54-14.06-56.25-4.69-49.22-7-84.38S191.15,698,163,599.59s-49.22-138.27-49.22-138.27c264.84-199.22,318.74-607,332.8-675s-2.34-89.06,21.1-103.12,11.71-72.65,11.71-72.65,30.47,14.06,46.88,0,7-37.5,18.75-77.34,0-68,0-68l56.25-9.38c56.25-9.37,49.22,11.72,65.62,23.44s25.78-14.06,53.9-23.44,30.47,11.72,32.82-42.18,23.43-77.35,23.43-77.35c-2.34,21.1,25.78,28.13,25.78,28.13,7-23.44,30.47-35.16,30.47-35.16C906-717.56,950.51-926.15,950.51-926.15c-50.3,177.56-56.25,309.37-56.25,309.37S934.1-501.94,920-438.66s-79.69,112.5-119.53,150-11.72,98.43-27.34,201.55S763,55.86,770,102.73s0,65.62,0,65.62-94.51,193.2-39.8,390.5" transform="translate(-107.23 926.15)"/><path class="cls-4" d="M778,201.62s-33.62-1.46-51.06,11.62-33,30.83-37.24,77.55,12.14,24.66-4.2,140.35,24,156,64.33,116.79c0,0-34.62-67.48-10.23-63.18,0,0,43.18-1,42.52-111.19S802.87,214,778,201.62" transform="translate(-107.23 926.15)"/><path d="M950.51-926.15c-5,23.31-10.87,46.4-17.43,69.32s-13.94,45.62-22.39,67.94-18.05,44.27-29.82,65.17A240.73,240.73,0,0,1,861-693.64c-7.5,9.43-16,18.33-26.28,25.17l-.06,0-.19.1a65.92,65.92,0,0,0-9.41,6.36,68.61,68.61,0,0,0-8.28,7.88,51,51,0,0,0-11,19.43l-.83,2.82-2.81-.75a54.39,54.39,0,0,1-10.36-4,42.57,42.57,0,0,1-9.32-6.22,27.15,27.15,0,0,1-7-9.41A24,24,0,0,1,773.72-664l5.86,2.63a58.76,58.76,0,0,0-5.5,8.34c-1.7,3-3.17,6.11-4.58,9.27A129.84,129.84,0,0,0,762.89-624c-3.52,13.54-4.9,27.44-5.35,41.61-.3,7.18-.56,14.33-1.41,21.73-.22,1.86-.51,3.74-.93,5.69a21.75,21.75,0,0,1-2.27,6.28,11.11,11.11,0,0,1-2.8,3.26,11.27,11.27,0,0,1-3.9,1.93,29.55,29.55,0,0,1-6.3.78,67.8,67.8,0,0,0-10.06,1,54.94,54.94,0,0,0-9.48,2.7,69.77,69.77,0,0,0-17.37,10c-2.74,2.07-5.42,4.3-8.23,6.59a70.71,70.71,0,0,1-9.34,6.75,23.77,23.77,0,0,1-6.21,2.56,17.15,17.15,0,0,1-7.52.17,20.57,20.57,0,0,1-6.57-2.75,32.37,32.37,0,0,1-5-3.91,61.46,61.46,0,0,1-7.45-8.92,35.81,35.81,0,0,0-6.2-7c-4.28-3.59-10.36-5-17-5.42-13.29-.73-27.18,2.15-41.35,4.41l-42.29,7,3.93-7.1a59,59,0,0,1,2.11,6.58c.58,2.13,1,4.27,1.47,6.42a113.73,113.73,0,0,1,1.7,12.94,126.23,126.23,0,0,1-.91,25.93c-.56,4.29-1.44,8.52-2.38,12.72L548.57-460a170.53,170.53,0,0,0-4.31,23.77c-1,8.08-1.29,16.26-2.41,24.9A55.74,55.74,0,0,1,538.61-398a32,32,0,0,1-8.39,12,30.37,30.37,0,0,1-13.17,6.83,45.54,45.54,0,0,1-14,1,71.21,71.21,0,0,1-13.21-2.23,85.37,85.37,0,0,1-12.62-4.35l7.24-5.72a182.34,182.34,0,0,1,3,30.67c0,10.29-.63,20.86-4.55,31.33-2,5.16-5.08,10.46-10,14.34-2.86,2.1-4.39,2.81-6,4.19a18.51,18.51,0,0,0-3.92,4.32c-2.07,3.17-3.09,7.29-3.58,11.91s-.62,9.51-.76,14.46c-.22,9.93-.54,20.09-1.5,30.17S454.78-228.94,453-219c-4,19.52-7.2,39.11-11,58.75C427.13-81.79,407.51-4,380.86,71.41S320.76,220.1,277.62,287.73a750,750,0,0,1-72.35,96,612.91,612.91,0,0,1-88.35,81.71l1.47-6.56c3.67,7.26,6.69,14.28,9.73,21.51s5.83,14.41,8.59,21.67q8.19,21.78,15.36,43.88c4.77,14.73,9.38,29.51,13.65,44.38,2.21,7.46,4.25,14.77,6.58,22.06s4.76,14.54,7.28,21.77c10.24,28.87,22.28,57.14,34.86,85.23l19.05,42.17c6.29,14.13,12.58,28.29,17.85,43.15,2.55,7.48,5,15,5.86,23.69.57,7.89.84,15.6,1.06,23.36.51,15.44.38,31,2,45.75a58.26,58.26,0,0,0,2,10.35,14.15,14.15,0,0,0,1.77,3.8,15.39,15.39,0,0,0,3.05,3.05c1.32,1.06,3,2.2,4.71,3.7a24.68,24.68,0,0,1,4.79,5.46A30.79,30.79,0,0,1,280.78,937c.94,8.55.05,16.5-1,24.37-.54,3.86-1.26,7.93-1.89,11.54a64.73,64.73,0,0,0-1,10.58c0,3.35.76,6.25,1.89,7.28,1,1.17,4,2,7.73,2.59a58.76,58.76,0,0,1,12.26,3,31.52,31.52,0,0,1,11.38,7.64c6.28,6.69,9.42,14.77,11.7,22.55l1.51,5.69c.48,1.82,1,3.65,1.5,5.48,1,3.66,2.15,7.32,3.25,11,9.12,29.28,19.35,58.39,29.42,87.53s20.24,58.29,30.05,87.58,19.38,58.68,27.57,88.63q3.09,11.23,5.67,22.67c.84,3.83,1.65,7.66,2.33,11.57s1.29,7.56,2,11.32a270.89,270.89,0,0,0,11.67,43.86c1.28,3.58,2.67,7.17,4,11a65.32,65.32,0,0,1,3,12.18c1.07,8.57.07,16.76-1.21,24.55a90.09,90.09,0,0,0-1.37,10.91,58,58,0,0,0,.33,10.57c.85,6.83,3.4,13.46,7.83,17.21s10.24,4,15.63.88a29.76,29.76,0,0,0,7.48-6.37,66.25,66.25,0,0,0,6.35-8.61c7.73-12.44,13.19-26.77,18-41.14s8.82-29.23,12.53-44.11c1.85-7.4,3.58-15,5.61-22.53s4.19-15,6.4-22.4c4.49-14.79,8.78-29.36,12-44.28s5.87-30,8.11-45.15l1.62-11.39,1.45-11.42c1-7.59,2-15.46,3.35-23.17a180.06,180.06,0,0,1,5.55-23.14,93.13,93.13,0,0,1,10.12-22.17c2.15-3.44,4.44-6.59,6.32-9.64a43.18,43.18,0,0,0,4.48-9.33c2.17-6.55,2.94-13.92,3.29-21.36.69-14.93-.88-30.22-1.22-45.88a196.63,196.63,0,0,1,.51-23.8,52.07,52.07,0,0,1,1-6.35,26.71,26.71,0,0,1,2.43-6.6c1.1-2.08,2-3.44,2.58-4.81a24.14,24.14,0,0,0,1.45-4.56,75.2,75.2,0,0,0,1.48-10.7c.31-3.71.46-7.49.58-11.27s.11-7.58.15-11.45l.13-6,.33-5.92a376.62,376.62,0,0,1,6.63-46.43c3-15.26,6.65-30.36,10.59-45.36,7.9-30,17.13-59.56,27.2-88.83s21.06-58.22,33.09-86.77,24.95-56.89,41.81-83.41c4.22-6.61,8.74-13.07,13.54-19.3s10-12.21,14.78-18,8.75-11.48,10.85-18.1a62.8,62.8,0,0,0,2.4-10.38l.37-2.71c.08-.87.18-1.7.22-2.57a40.56,40.56,0,0,0,0-5.17,66.91,66.91,0,0,0-5.11-20.76,208.59,208.59,0,0,0-9.87-20.28c-1.81-3.41-3.67-6.85-5.4-10.54a59,59,0,0,1-2.4-5.85,25.34,25.34,0,0,1-1.5-7.1,14,14,0,0,1,.5-4.5,11.89,11.89,0,0,1,2.4-4.48,15.27,15.27,0,0,1,7.31-4.47,26.26,26.26,0,0,1,3.44-.82l2.69-.5a36.8,36.8,0,0,0,4.81-1.36,29.88,29.88,0,0,0,14.91-12.47c3.7-5.79,6.14-12.7,8-19.85a221.56,221.56,0,0,0,4.2-22.17L774.23,412c.44-3.7.86-7.41,1.12-11.21,1.22-15.14,1.67-30.56,2.28-45.94s1.06-30.83,1.78-46.28,1.61-30.93,3.32-46.43c.69-7.74,2.29-15.64,3.06-22.9s.83-14.85-.77-21.65a23.55,23.55,0,0,0-4.07-9,13,13,0,0,0-7.46-4.72,18.21,18.21,0,0,0-9.52.7c-4.24,1.23-7.83,1.76-11.55,2.66a89.34,89.34,0,0,0-21,7.29,62.69,62.69,0,0,0-17.54,13.1c-10.13,10.71-16.07,25-18.94,39.73A151.34,151.34,0,0,0,692.34,290c-.29,7.63-.07,15.17.28,22.91,1.4,30.85,1.63,62-2.16,92.73-1.83,15.37-4.41,30.57-6,45.86-.41,3.83-.79,7.65-1.07,11.49s-.57,7.67-.78,11.51a168,168,0,0,0-.1,23c1.05,15.24,4.36,30.59,11.65,44.13,3.68,6.67,8.38,13,14.77,17.31a21.07,21.07,0,0,0,10.69,3.77,15.33,15.33,0,0,0,10.59-3.8,15.39,15.39,0,0,1-10.59,4,21.21,21.21,0,0,1-10.93-3.61C702.14,555,697.25,548.7,693.4,542c-7.65-13.56-11.3-29-12.67-44.43-2-31,2.83-61.86,6.3-92.37,3.29-30.57,2.59-61.38.72-92.09l-.58-11.62c-.16-3.9-.11-7.81-.07-11.72a158.14,158.14,0,0,1,2.33-23.42c2.77-15.44,8.81-31,19.8-43a68.85,68.85,0,0,1,19.1-14.74,96,96,0,0,1,22.46-8.22c3.76-.95,7.8-1.69,10.94-2.67A25.56,25.56,0,0,1,775,196.69a20.58,20.58,0,0,1,11.84,7.18,31.09,31.09,0,0,1,5.72,11.82c2.07,8.23,2,16.4,1.35,24.34-.74,8.1-2.14,15.37-2.69,23-1.42,15.18-2.05,30.54-2.52,45.9s-.7,30.78-1,46.21-.61,30.88-1.79,46.5c-.27,3.89-.71,7.84-1.2,11.79L783.08,425a230.54,230.54,0,0,1-4.53,23.24c-2,7.74-4.75,15.58-9.37,22.82a40.35,40.35,0,0,1-20,16.58,46,46,0,0,1-6.31,1.79l-3,.56a17.08,17.08,0,0,0-2.18.51,5.38,5.38,0,0,0-2.51,1.33c-.24.31-.43.63-.41,1.8.1,2.3,1.43,5.78,2.94,9s3.34,6.65,5.15,10A217.7,217.7,0,0,1,753.19,534a77.49,77.49,0,0,1,5.84,24,56.44,56.44,0,0,1-.68,12.6,72.56,72.56,0,0,1-2.81,12.13,54.74,54.74,0,0,1-5.41,11.54,94.3,94.3,0,0,1-7.26,9.85c-5,6.07-10,11.74-14.59,17.75s-8.94,12.18-13,18.56C699,666,686.32,694,674.27,722.23s-22.81,57.07-32.84,86.12-19.15,58.42-27,88.09c-3.89,14.83-7.45,29.74-10.44,44.73a367.25,367.25,0,0,0-6.45,45.11l-.32,5.63-.13,5.6c0,3.85,0,7.78-.15,11.69s-.27,7.85-.6,11.83a85.26,85.26,0,0,1-1.72,12.19,34.75,34.75,0,0,1-2.07,6.43c-1,2.18-2.18,4.06-2.86,5.4-1.39,2.52-2,5.67-2.36,9.28a186.66,186.66,0,0,0-.45,22.42c.17,7.65.62,15.21,1,23s.56,15.64.22,23.59-1.15,16.07-3.82,24.21A53.71,53.71,0,0,1,578.8,1159c-2.18,3.51-4.43,6.61-6.37,9.7-7.79,12.18-11.53,26.77-14.23,41.63s-4,30.33-6.37,45.66-4.88,30.67-8.25,45.9-7.75,30.28-12.21,45c-2.21,7.37-4.38,14.7-6.31,22.08s-3.67,14.81-5.56,22.37c-3.76,15.05-7.83,30.05-12.76,44.88s-10.54,29.57-19.09,43.39a77,77,0,0,1-7.38,10,40.05,40.05,0,0,1-10.1,8.5,25.49,25.49,0,0,1-13.87,3.53,22.73,22.73,0,0,1-13.6-5.53,31.11,31.11,0,0,1-8.05-11.21,47.45,47.45,0,0,1-3.33-12.54,79.74,79.74,0,0,1,1.09-24.54c1.24-7.38,2-14.71,1.15-21.49s-3.75-13.61-6.39-21a280.51,280.51,0,0,1-12.11-45.46c-.75-3.8-1.35-7.76-2.05-11.44s-1.43-7.41-2.24-11.12q-2.52-11.11-5.56-22.21c-8.08-29.55-17.65-58.84-27.39-88s-19.91-58.33-30-87.47-20.31-58.26-29.54-87.89c-1.12-3.72-2.26-7.43-3.31-11.2-.54-1.87-1.05-3.77-1.55-5.68l-1.46-5.48c-2-6.94-4.83-13.62-9.21-18.22a21.06,21.06,0,0,0-7.68-5.15,49.2,49.2,0,0,0-10.2-2.4,45.7,45.7,0,0,1-6.35-1.41,16.62,16.62,0,0,1-7.11-4.2,16.25,16.25,0,0,1-3.95-7.36,30.08,30.08,0,0,1-.85-6.94,73.83,73.83,0,0,1,1.11-12.42c.69-4,1.32-7.53,1.85-11.3,1-7.39,1.72-14.92.94-21.73a20.69,20.69,0,0,0-2.68-8.76c-1.41-2.33-3.74-4-7.22-6.62a26.08,26.08,0,0,1-5-5.16,24.8,24.8,0,0,1-3.18-6.61,68.27,68.27,0,0,1-2.43-12.31c-1.7-15.92-1.51-31.3-2-46.68-.22-7.65-.5-15.36-1-22.85-.61-6.73-2.86-14-5.31-21.08-5-14.22-11.27-28.29-17.53-42.33l-19-42.17c-12.63-28.19-24.79-56.73-35.18-86-2.56-7.33-5.08-14.68-7.39-22.11s-4.48-15-6.64-22.27c-4.25-14.78-8.83-29.45-13.56-44.06s-9.81-29.1-15.2-43.44c-2.72-7.17-5.51-14.3-8.46-21.34s-6-14.15-9.33-20.65l-2-4,3.47-2.6c63.18-47.53,115.65-108.35,158.19-175S344.72,142.77,371.1,68,417-84.11,431.78-162.19c3.76-19.47,7-39.21,11-58.72,1.79-9.65,3.2-19.34,4.07-29.1s1.24-19.52,1.46-29.49c.14-5,.23-10.06.81-15.37s1.8-11.13,5.18-16.37a29.14,29.14,0,0,1,6.07-6.71c2.17-1.81,5.09-3.44,6.21-4.33,2.95-2.28,5.19-5.85,6.76-9.92,3.13-8.25,3.91-17.95,3.85-27.49a173.41,173.41,0,0,0-2.82-28.74L472.6-398l9,3.85a70.78,70.78,0,0,0,22.2,5.66c7.48.55,14.75-.82,19.5-5.23a21.47,21.47,0,0,0,5.71-8.2,47,47,0,0,0,2.58-10.84c1-7.82,1.39-16.26,2.38-24.67a181,181,0,0,1,4.57-25.18l3.2-11.95c.87-3.88,1.69-7.78,2.2-11.73a115.12,115.12,0,0,0,.84-23.75,102,102,0,0,0-1.54-11.73c-.37-1.92-.8-3.84-1.31-5.71a51,51,0,0,0-1.66-5.28l-2.37-6,6.3-1.06L586.47-547c14-2.24,28.34-5.46,43.71-4.66a52.88,52.88,0,0,1,11.76,1.94,32.1,32.1,0,0,1,11.25,6,46,46,0,0,1,7.92,9,56,56,0,0,0,6.14,7.62c2.16,2.11,4.6,3.76,6.58,4.2s4.12-.05,6.78-1.5c5.26-3,10.72-8.07,16.69-12.36a79.19,79.19,0,0,1,19.86-11,62.32,62.32,0,0,1,11.15-3,75.28,75.28,0,0,1,11.26-.93,24.06,24.06,0,0,0,4.34-.39c.88-.33,1-.3,1.55-1.16a13.44,13.44,0,0,0,1.35-3.76c.36-1.54.65-3.18.88-4.87.89-6.78,1.29-13.93,1.7-21,.69-14.36,2.37-29.05,6.3-43.13A136.47,136.47,0,0,1,763-646.66a110.45,110.45,0,0,1,5.08-9.85,62.35,62.35,0,0,1,6.49-9.4l7.08-8.36-1.23,11a17.17,17.17,0,0,0,1.1,8.54,20.68,20.68,0,0,0,5.22,7.24,36.77,36.77,0,0,0,7.86,5.41,48.73,48.73,0,0,0,9,3.62L800-636.4a57.07,57.07,0,0,1,12.65-21.48,72.86,72.86,0,0,1,9.11-8.37A68.73,68.73,0,0,1,832.14-673l-.24.14c9.7-6.2,18.05-14.6,25.48-23.67a235.28,235.28,0,0,0,20-29.19c12-20.43,21.81-42.13,30.69-64.17s16.64-44.57,23.68-67.31,13.4-45.71,18.81-68.91" transform="translate(-107.23 926.15)"/><path d="M770,168.35a66,66,0,0,0,1.66-13c.21-4.35.15-8.71-.07-13a227.26,227.26,0,0,0-2.72-25.92c-1.34-8.56-3.12-17.08-4.75-25.77S761,73.28,759.81,64.48c-3.5-35.38-1.69-71,2.15-106,.92-8.77,2.06-17.5,3.2-26.23l3.71-26A462,462,0,0,0,773-145.56c.52-17.36.09-34.76-.26-52.31s-.79-35.38,2.57-53.5c1.78-9,4.68-18.11,9.65-26.22a69,69,0,0,1,8.52-11.35c3.34-3.51,6.55-6.34,9.8-9.37,13-11.9,26.19-23.36,38.85-35.3A421.16,421.16,0,0,0,878-371.11c11-13.23,20.76-27.42,27.91-42.77a128.09,128.09,0,0,0,8.45-23.76,41.61,41.61,0,0,0,1.24-6.15l1-6.2a54.58,54.58,0,0,0,.59-6.31l.42-6.34c.68-17-1.1-34.28-3.5-51.39-1.75-17.25-4.58-34.46-7.95-51.61-1.71-8.56-3.53-17.12-5.55-25.64s-4.06-17-6.39-25.5a579,579,0,0,1,30.13,101.22c.38,2.19.81,4.37,1.1,6.57s.46,4.42.69,6.63c.39,4.43,1,8.82,1.22,13.29a244.9,244.9,0,0,1,.61,26.85l-.46,6.77a59.61,59.61,0,0,1-.63,6.76l-1.11,6.78a46.38,46.38,0,0,1-1.36,6.71,138.71,138.71,0,0,1-9.11,25.68c-7.66,16.43-18,31.31-29.34,45a432.35,432.35,0,0,1-36.74,38.43c-12.83,12.11-26.11,23.64-39,35.4-3.17,2.94-6.52,5.93-9.21,8.78a58.39,58.39,0,0,0-7.23,9.63c-4.21,6.85-6.74,14.71-8.36,22.86-3.08,16.43-2.66,33.9-2.39,51.33s.79,35.12.27,52.8a471.93,471.93,0,0,1-4.26,52.93l-3.71,26c-1.12,8.65-2.26,17.3-3.17,26-3.75,34.62-5.61,69.41-2,103.85q.72,13,2,26c.8,8.66,1.93,17.43,2.36,26.31a230.55,230.55,0,0,1,.08,26.55c-.28,4.41-.73,8.81-1.45,13.18A66.81,66.81,0,0,1,770,168.35" transform="translate(-107.23 926.15)"/><path d="M424.63,692.16a170.7,170.7,0,0,0,21.3-18.59,78.22,78.22,0,0,0,8.89-10.88c1.44-1.94,2.12-4,3.65-6.14a4.68,4.68,0,0,1,3.47-2,6.85,6.85,0,0,1,3.78,1,29.59,29.59,0,0,1,5.77,4.44c1.75,1.63,3.41,3.33,5.06,5,3.29,3.39,6.5,6.84,9.88,10.08a69.26,69.26,0,0,0,10.82,8.85,30.81,30.81,0,0,0,13,5v.19a27.85,27.85,0,0,1-7.06-1.1,37.52,37.52,0,0,1-6.58-2.91,65.12,65.12,0,0,1-11.46-8.6c-3.49-3.24-6.74-6.7-9.94-10.17s-6.36-7.08-10.19-9.42c-1.91-1.2-4.11-1.3-5.4.53-1.25,1.63-2.27,4.12-3.7,5.95a79.43,79.43,0,0,1-9.25,10.86,170.31,170.31,0,0,1-21.88,18.07Z" transform="translate(-107.23 926.15)"/><path d="M356.4,716.23a213.25,213.25,0,0,0,26.68-23.15,97,97,0,0,0,11.14-13.59c1.8-2.4,2.69-5,4.58-7.64a5.66,5.66,0,0,1,4.2-2.43,8.34,8.34,0,0,1,4.61,1.23,36.24,36.24,0,0,1,7.16,5.53c2.17,2,4.24,4.16,6.3,6.28,4.1,4.26,8.11,8.56,12.35,12.61a85.49,85.49,0,0,0,13.59,11,38,38,0,0,0,16.27,6.09v.2a35.23,35.23,0,0,1-8.79-1.47,47.43,47.43,0,0,1-8.17-3.66,81.63,81.63,0,0,1-14.22-10.78c-4.36-4-8.41-8.37-12.42-12.7-2-2.15-4-4.3-6.1-6.34a34.68,34.68,0,0,0-6.7-5.43,6.91,6.91,0,0,0-3.77-1.11,4.22,4.22,0,0,0-3.21,1.83c-1.59,2.11-2.82,5.16-4.62,7.46a98.83,98.83,0,0,1-11.5,13.57,214.27,214.27,0,0,1-27.25,22.63Z" transform="translate(-107.23 926.15)"/><path d="M488.15,676.94a145.57,145.57,0,0,0,18.06-15.84,67.14,67.14,0,0,0,7.53-9.26c1.22-1.65,1.78-3.34,3.11-5.23a4.11,4.11,0,0,1,3-1.75,5.92,5.92,0,0,1,3.27.86c3.73,2.15,6.39,5.22,9.26,8s5.54,5.81,8.4,8.56a59.32,59.32,0,0,0,9.15,7.55,26.42,26.42,0,0,0,11,4.31v.19a24.36,24.36,0,0,1-6-.89,32.2,32.2,0,0,1-5.62-2.45,54.75,54.75,0,0,1-9.79-7.29c-3-2.76-5.75-5.71-8.46-8.66s-5.39-6-8.61-8c-1.62-1-3.38-1.09-4.46.42-1,1.35-1.93,3.49-3.15,5a67.06,67.06,0,0,1-7.89,9.24,146.1,146.1,0,0,1-18.64,15.32Z" transform="translate(-107.23 926.15)"/></g></g></g></svg>